<?xml version="1.0" encoding="utf-8"?>
<!-- Generator: Adobe Illustrator 16.0.0, SVG Export Plug-In . SVG Version: 6.00 Build 0)  -->
<!DOCTYPE svg PUBLIC "-//W3C//DTD SVG 1.1//EN" "http://www.w3.org/Graphics/SVG/1.1/DTD/svg11.dtd">
<svg version="1.1" id="Layer_1" xmlns="http://www.w3.org/2000/svg" xmlns:xlink="http://www.w3.org/1999/xlink" x="0px" y="0px"
	 width="64px" height="64px" viewBox="0 0 64 64" enable-background="new 0 0 64 64" xml:space="preserve">
<path fill="#707070" d="M50.896,39.684c-4.621-1.752-4.342-1.049-4.342-4.297c0-2.098,1.036-1.328,1.694-5.323
	c0.257-1.574,0.469-0.524,1.017-3.047c0.291-1.316-0.201-1.417-0.135-2.042c0.057-0.625,0.111-1.194,0.225-2.478
	c0.135-1.607-1.295-5.805-6.406-5.805s-6.54,4.196-6.406,5.805c0.102,1.294,0.168,1.853,0.225,2.478
	c0.056,0.625-0.425,0.726-0.135,2.042c0.547,2.522,0.76,1.463,1.016,3.047c0.658,3.995,1.688,3.237,1.688,5.323
	c0,1.496,0.348,2.121-1.663,3.07c0.604,0.211,1.308,0.469,2.153,0.793c6.07,2.309,5.927,4.553,6.083,5.613
	c0.11,0.725,0.167,6.506,0.188,8.57H57c0,0,0-8.984-0.167-10.033C56.71,42.574,55.604,41.482,50.896,39.684z M43.271,53.434
	c0,0,0-1.572-0.021-3.393c-0.021-2.076-0.078-4.463-0.189-5.178c-0.168-1.063-1.597-2.479-7.656-4.789
	c-0.836-0.313-1.538-0.568-2.152-0.791c-3.716-1.318-3.449-1.752-3.449-5.357c0-2.712,1.339-0.947,2.188-6.094
	c0.335-2.031,0.603-0.682,1.306-3.928c0.379-1.697-0.257-1.832-0.179-2.646c0.077-0.815,0.155-1.541,0.29-3.203
	c0.179-2.065-1.663-7.489-8.271-7.489c-6.606,0-8.438,5.414-8.27,7.489c0.134,1.663,0.212,2.388,0.301,3.203
	c0.078,0.813-0.559,0.938-0.179,2.646c0.714,3.248,0.981,1.896,1.317,3.928c0.848,5.146,2.176,3.382,2.176,6.094
	c0,4.195,0.369,3.883-5.604,6.148c-6.061,2.311-7.488,3.729-7.656,4.789C7,46.213,7,53.434,7,53.434H43.271z"/>
</svg>
