<?xml version="1.0" encoding="utf-8"?>
<!-- Generator: Adobe Illustrator 16.0.0, SVG Export Plug-In . SVG Version: 6.00 Build 0)  -->
<!DOCTYPE svg PUBLIC "-//W3C//DTD SVG 1.1//EN" "http://www.w3.org/Graphics/SVG/1.1/DTD/svg11.dtd">
<svg version="1.1" id="Layer_1" xmlns="http://www.w3.org/2000/svg" xmlns:xlink="http://www.w3.org/1999/xlink" x="0px" y="0px"
	 width="64px" height="64px" viewBox="0 0 64 64" enable-background="new 0 0 64 64" xml:space="preserve">
<path fill="#707070" d="M57,24.857V7H39.143l7.031,7.031l-7.667,7.667c-3.293-2.5-7.411-3.984-11.864-3.984
	C15.794,17.714,7,26.508,7,37.357C7,48.205,15.794,57,26.643,57s19.644-8.795,19.644-19.643c0-4.453-1.484-8.572-3.984-11.864
	l7.667-7.667L57,24.857z M36.743,47.458c-2.701,2.7-6.283,4.185-10.101,4.185c-3.816,0-7.399-1.483-10.101-4.185
	s-4.187-6.284-4.187-10.101c0-3.817,1.484-7.4,4.187-10.102c2.701-2.701,6.283-4.186,10.101-4.186s7.399,1.484,10.101,4.186
	c2.7,2.701,4.187,6.283,4.187,10.102C40.93,41.174,39.443,44.757,36.743,47.458z"/>
</svg>
