<?xml version="1.0" encoding="utf-8"?>
<!-- Generator: Adobe Illustrator 16.0.0, SVG Export Plug-In . SVG Version: 6.00 Build 0)  -->
<!DOCTYPE svg PUBLIC "-//W3C//DTD SVG 1.1//EN" "http://www.w3.org/Graphics/SVG/1.1/DTD/svg11.dtd">
<svg version="1.1" id="Layer_1" xmlns="http://www.w3.org/2000/svg" xmlns:xlink="http://www.w3.org/1999/xlink" x="0px" y="0px"
	 width="64px" height="64px" viewBox="0 0 64 64" enable-background="new 0 0 64 64" xml:space="preserve">
<path fill="#707070" d="M35.57,35.125c6.162-1.585,10.716-7.176,10.716-13.839C46.286,13.395,39.891,7,32,7
	s-14.286,6.395-14.286,14.286c0,6.651,4.554,12.243,10.714,13.839v7.589h-7.143v7.144h7.143V57h7.143v-7.143h7.144v-7.145H35.57
	V35.125L35.57,35.125z M32,30.214c-4.922,0-8.93-4.007-8.93-8.929s4.008-8.93,8.93-8.93s8.93,4.008,8.93,8.93
	S36.922,30.214,32,30.214L32,30.214z"/>
</svg>
