<?xml version="1.0" encoding="utf-8"?>
<!-- Generator: Adobe Illustrator 16.0.0, SVG Export Plug-In . SVG Version: 6.00 Build 0)  -->
<!DOCTYPE svg PUBLIC "-//W3C//DTD SVG 1.1//EN" "http://www.w3.org/Graphics/SVG/1.1/DTD/svg11.dtd">
<svg version="1.1" id="Layer_1" xmlns="http://www.w3.org/2000/svg" xmlns:xlink="http://www.w3.org/1999/xlink" x="0px" y="0px"
	 width="64px" height="64px" viewBox="0 0 64 64" enable-background="new 0 0 64 64" xml:space="preserve">
<path fill="#707070" d="M32,7c-8.259,0-14.979,6.551-14.979,14.811c0,1.83,0.392,3.828,1.095,5.625h-0.011l0.066,0.133l0.167,0.369
	L32,57l13.594-28.917l0.067-0.134l0.178-0.379l0.045-0.123c0.726-1.797,1.095-3.694,1.095-5.614C46.979,13.551,40.259,7,32,7z
	 M32,26.52c-2.891,0-5.234-2.344-5.234-5.233s2.344-5.233,5.234-5.233s5.234,2.344,5.234,5.233S34.891,26.52,32,26.52z"/>
</svg>
