<svg xmlns="http://www.w3.org/2000/svg" width="64" height="64" viewBox="0 0 64 64"><path d="M31 2v8h-5l3.042-8M33 2v8h5l-3.042-8M3.159 23.681l7.609 2.472-1.545 4.755-6.669-5.365M3.777 21.778l7.609 2.473 1.545-4.756-8.549.421M15.175 56.858l4.703-6.472 4.045 2.939-7.163 4.684M13.557 55.683l4.703-6.472-4.045-2.939-2.242 8.26M50.443 55.683l-4.703-6.472 4.045-2.939 2.242 8.26M48.825 56.858l-4.703-6.472-4.045 2.939 7.163 4.684M60.223 21.778l-7.609 2.473-1.545-4.756 8.549.421M60.841 23.681l-7.609 2.472 1.545 4.755 6.669-5.365"/><path d="M33 9.984c8.992.404 16.596 6.22 19.629 14.262l2.858-.929c-3.428-9.243-12.164-15.925-22.487-16.333v3zM11.371 24.246c3.033-8.042 10.637-13.858 19.629-14.262v-3c-10.323.408-19.059 7.09-22.487 16.333l2.858.929zM53.247 26.148c.514 1.865.795 3.826.795 5.852 0 6.959-3.245 13.172-8.299 17.214l1.763 2.427c5.802-4.59 9.535-11.686 9.535-19.641 0-2.35-.332-4.622-.94-6.78l-2.854.928zM44.127 50.393c-3.481 2.303-7.649 3.649-12.127 3.649s-8.646-1.346-12.127-3.649l-1.765 2.43c3.978 2.663 8.756 4.219 13.893 4.219s9.914-1.556 13.893-4.219l-1.767-2.43zM16.494 51.641l1.763-2.427c-5.053-4.042-8.299-10.255-8.299-17.214 0-2.026.28-3.987.795-5.852l-2.854-.928c-.608 2.158-.94 4.43-.94 6.78-.001 7.956 3.733 15.051 9.535 19.641z"/></svg>