<svg xmlns="http://www.w3.org/2000/svg" width="64" height="64" viewBox="0 0 64 64"><path d="M28.881 7.075l-.006.001c-12.33 1.53-21.92 12.091-21.92 24.841 0 3.535.743 6.897 2.071 9.948l2.625-1.515c-1.082-2.6-1.696-5.443-1.696-8.432 0-11.089 8.239-20.299 18.918-21.82v-3.017l.014-.001-.006-.005zM34.89 7.043l-.016.011v2.577h.002c10.81 2 19.17 10.898 19.17 22.068 0 2.898-.572 5.772-1.593 8.309l2.618 1.566.021-.008c1.255-2.975 1.954-6.232 1.954-9.662-.001-12.835-9.703-23.425-22.156-24.861zM49.471 45.44c-3.48 4.522-8.663 7.56-14.596 8.56h.125v2h-6v-2.263c-6-.817-10.817-3.862-14.246-8.215l-2.665 1.52c4.579 6.02 11.797 9.915 19.922 9.915 8.222 0 15.524-3.923 20.094-10.059l-2.634-1.458z"/><path fill="#00827E" d="M29 52h6v4h-6z"/><path d="M30 21h4v22h-4zM38 21h4v22h-4zM22 21h4v22h-4z"/><path fill="#00827E" d="M16.493 19.362l-3 5.196-3.464-2 3-5.196zM50.629 24.775l-3-5.196 3.464-2 3 5.196z"/></svg>