<svg xmlns="http://www.w3.org/2000/svg" width="64" height="64" viewBox="0 0 64 64"><path d="M21 21h4v22h-4zM29 21h4v10h-4zM39 21h4v10h-4zM18.735 14.41c3.694-2.792 8.289-4.452 13.265-4.452 4.912 0 9.453 1.616 13.122 4.344l2.137-2.137c-4.228-3.261-9.519-5.207-15.259-5.207-5.804 0-11.148 1.99-15.399 5.316l2.134 2.136zM51.542 16.367l-2.135 2.135c2.901 3.733 4.635 8.415 4.635 13.498 0 4.976-1.659 9.571-4.451 13.264l2.135 2.135c3.326-4.251 5.316-9.595 5.316-15.399 0-5.91-2.063-11.345-5.5-15.633zM45.357 49.517c-3.709 2.835-8.339 4.524-13.358 4.524-5.082 0-9.765-1.734-13.497-4.635l-2.135 2.135c4.288 3.437 9.722 5.5 15.632 5.5 5.846 0 11.227-2.019 15.493-5.389l-2.135-2.135zM14.302 45.122c-2.727-3.669-4.344-8.21-4.344-13.122 0-5.019 1.689-9.649 4.525-13.358l-2.135-2.135c-3.37 4.266-5.39 9.646-5.39 15.493 0 5.74 1.946 11.031 5.206 15.259l2.138-2.137z"/><path fill="#00827E" d="M29 52h6v4h-6zM8 29h4v6h-4zM52 29h4v6h-4zM29 8h6v4h-6z"/><path d="M29 31l5 12h4l5-12h-4l-2.031 6h-1.969l-2-6z"/></svg>