<?xml version="1.0" encoding="utf-8"?>
<!-- Generator: Adobe Illustrator 17.0.0, SVG Export Plug-In . SVG Version: 6.00 Build 0)  -->
<!DOCTYPE svg PUBLIC "-//W3C//DTD SVG 1.1//EN" "http://www.w3.org/Graphics/SVG/1.1/DTD/svg11.dtd">
<svg version="1.1" id="Layer_1" xmlns="http://www.w3.org/2000/svg" xmlns:xlink="http://www.w3.org/1999/xlink" x="0px" y="0px"
	 width="64px" height="64px" viewBox="0 0 64 64" enable-background="new 0 0 64 64" xml:space="preserve">
<path fill="#8C7050" d="M55.305,31.422c-0.848,12.68-9.491,19.267-19.907,19.959V38.434c-0.586,0.178-1.207,0.277-1.851,0.278
	c-3.516-0.006-6.36-2.851-6.366-6.366c0.006-3.514,2.85-6.36,6.366-6.365c0.645,0.001,1.266,0.1,1.851,0.278V12.646
	c4.761,0.45,9.024,2.615,12.159,5.873c0.007,0.006,0.012,0.012,0.019,0.018c0.001,0.002,0.003,0.003,0.004,0.004l0.001,0
	c0.471,0.464,1.116,0.752,1.83,0.752c1.441,0,2.609-1.168,2.609-2.609c0-0.764-0.334-1.445-0.858-1.923l0.012-0.014
	C46.623,9.974,40.201,7,33.083,7c-13.806,0-25,11.193-25,25c0,13.807,11.193,25,25,25C49.546,57,58.401,43.198,55.305,31.422z
	 M31.116,51.288C21.525,50.091,14.102,41.915,14.102,32s7.423-18.091,17.014-19.288v8.679c-5.032,1.112-8.796,5.59-8.798,10.955
	c0.001,5.366,3.766,9.845,8.798,10.956V51.288z M31.463,32.346c0,1.47,1.192,2.662,2.662,2.662s2.662-1.191,2.662-2.662
	c0-1.469-1.191-2.662-2.662-2.662S31.463,30.877,31.463,32.346z"/>
</svg>
