<?xml version="1.0" encoding="utf-8"?>
<!-- Generator: Adobe Illustrator 17.0.0, SVG Export Plug-In . SVG Version: 6.00 Build 0)  -->
<!DOCTYPE svg PUBLIC "-//W3C//DTD SVG 1.1//EN" "http://www.w3.org/Graphics/SVG/1.1/DTD/svg11.dtd">
<svg version="1.1" id="Layer_1" xmlns="http://www.w3.org/2000/svg" xmlns:xlink="http://www.w3.org/1999/xlink" x="0px" y="0px"
	 width="64px" height="64px" viewBox="0 0 64 64" enable-background="new 0 0 64 64" xml:space="preserve">
<polygon fill="#7C8288" points="23.667,31.566 23.667,34.252 7,36.779 7,31.092 7,27.143 23.667,29.671 "/>
<polygon fill="#7C8288" points="40.333,32.356 40.333,29.671 57,27.143 57,32.83 57,36.779 40.333,34.252 "/>
<path fill="#7C8288" d="M28.011,34.094h3.12v-4.186h-3.12V34.094z M32.869,29.907v4.186h3.12v-4.186H32.869z"/>
<path fill="#7C8288" d="M36.354,19.955h3.985l4.4,6.81l5.483-0.831l-7.129-11.034h-5.794l1.062-5.687h-5.49v16.509h2.409
	L36.354,19.955z M26.703,14.899h-5.795l-7.129,11.035l5.481,0.83l4.4-6.81h3.986l1.076,5.766h2.409V9.212h-5.49L26.703,14.899z
	 M27.72,43.652H23.66l-4.214-6.524l-5.48,0.832l6.942,10.746h5.869l-1.135,6.083h5.49V38.28h-2.409L27.72,43.652z M40.339,43.652
	H36.28l-1.002-5.372h-2.409v16.509h5.49l-1.136-6.083h5.868l6.943-10.746l-5.481-0.832L40.339,43.652z"/>
</svg>
