<?xml version="1.0" encoding="utf-8"?>
<!-- Generator: Adobe Illustrator 17.0.0, SVG Export Plug-In . SVG Version: 6.00 Build 0)  -->
<!DOCTYPE svg PUBLIC "-//W3C//DTD SVG 1.1//EN" "http://www.w3.org/Graphics/SVG/1.1/DTD/svg11.dtd">
<svg version="1.1" id="Layer_1" xmlns="http://www.w3.org/2000/svg" xmlns:xlink="http://www.w3.org/1999/xlink" x="0px" y="0px"
	 width="64px" height="64px" viewBox="0 0 64 64" enable-background="new 0 0 64 64" xml:space="preserve">
<path fill="#7C8288" d="M38.488,51.113l-3.545-3.545l6.691-6.691l-6.691-6.69l3.632-3.632l8.212,8.213h5.884L41.518,27.614
	l6.848-6.849L34.602,7v5.887l7.878,7.878L32,31.244L21.521,20.764l7.879-7.88V7L15.635,20.764l6.849,6.849L11.328,38.768h5.886
	l8.212-8.213l3.631,3.631l-6.69,6.69l6.691,6.691l-3.545,3.545l-8.298-8.299h-5.886L25.513,57l6.489-6.489l6.487,6.487
	l14.183-14.185h-5.884L38.488,51.113z M28.253,40.879l3.748-3.749l3.747,3.747l-3.747,3.748L28.253,40.879z"/>
</svg>
