<?xml version="1.0" encoding="utf-8"?>
<!-- Generator: Adobe Illustrator 17.0.0, SVG Export Plug-In . SVG Version: 6.00 Build 0)  -->
<!DOCTYPE svg PUBLIC "-//W3C//DTD SVG 1.1//EN" "http://www.w3.org/Graphics/SVG/1.1/DTD/svg11.dtd">
<svg version="1.1" id="Layer_1" xmlns="http://www.w3.org/2000/svg" xmlns:xlink="http://www.w3.org/1999/xlink" x="0px" y="0px"
	 width="64px" height="64px" viewBox="0 0 64 64" enable-background="new 0 0 64 64" xml:space="preserve">
<path fill="#6B4739" d="M50.804,39.232c0.055-0.575,0.085-1.157,0.085-1.745c0-9.047-6.553-16.305-15.17-17.795
	c-0.035-0.596-0.18-3.064-0.357-5.536c-0.101-1.419-0.213-2.839-0.318-3.909c-0.052-0.536-0.106-0.983-0.156-1.303
	c-0.025-0.16-0.048-0.286-0.074-0.382c-0.054-0.091,0.021-0.167-0.212-0.26l-0.189-0.022v25.122h-4.828V8.281l-0.189,0.022
	c-0.231,0.094-0.157,0.168-0.211,0.26c-0.325,1.24-0.833,9.932-0.903,11.128c-8.616,1.489-15.17,8.747-15.17,17.795
	c0,0.59,0.03,1.171,0.084,1.747C11.14,40.411,7.02,43.555,7,47.282v0.515l0.309-0.414c0.001-0.003,0.651-0.871,1.663-1.743
	c1.012-0.874,2.38-1.73,3.773-1.728c0.567,0,1.141,0.137,1.715,0.476c0.248,0.606,0.525,1.197,0.833,1.767
	c-1.541,1.33-4.267,4.007-4.269,8.171c0,0.046,0,0.1,0.003,0.161l0.333,0.045c0.004-0.003,1.33-3.914,5.972-3.909
	c0.453,0,0.939,0.037,1.461,0.119c2.827,2.696,6.512,4.502,10.604,4.955l0.189,0.022v-6.381h4.828v6.379l0.189-0.021
	c4.094-0.453,7.777-2.257,10.604-4.954c0.521-0.082,1.009-0.121,1.464-0.121c4.638-0.005,5.957,3.909,5.971,3.91l0.333-0.053
	c0.002-0.052,0-0.104,0-0.154c-0.001-4.163-2.726-6.84-4.266-8.17c0.307-0.57,0.585-1.16,0.831-1.767
	c0.573-0.338,1.148-0.476,1.715-0.477c2.793-0.02,5.428,3.472,5.438,3.472L57,47.8v-0.518C56.981,43.553,52.86,40.41,50.804,39.232z
	 M29.586,40.256h4.828v2.485h-4.828V40.256z M34.414,35.373v2.399h-4.828v-2.399H34.414z M26.72,35.35
	c-0.456,3.351-1.02,6.702-1.681,9.207c-0.636,2.516-1.486,4.135-2.119,4.066c-3.301-0.011-7.131-3.306-7.139-11.136
	c0.001-5.701,3.127-9.533,6.273-11.958c2.628-2.024,5.251-3.043,6.044-3.328C28,23.494,27.528,29.417,26.72,35.35z M29.586,46.767
	v-1.799h4.828v1.799H29.586z M41.081,48.623c-0.633,0.067-1.483-1.551-2.119-4.067c-1.834-6.945-2.903-20.338-3.059-22.359
	c1.744,0.619,12.334,4.832,12.316,15.289C48.212,45.318,44.383,48.612,41.081,48.623z"/>
</svg>
