<?xml version="1.0" encoding="utf-8"?>
<!-- Generator: Adobe Illustrator 17.0.0, SVG Export Plug-In . SVG Version: 6.00 Build 0)  -->
<!DOCTYPE svg PUBLIC "-//W3C//DTD SVG 1.1//EN" "http://www.w3.org/Graphics/SVG/1.1/DTD/svg11.dtd">
<svg version="1.1" id="Layer_1" xmlns="http://www.w3.org/2000/svg" xmlns:xlink="http://www.w3.org/1999/xlink" x="0px" y="0px"
	 width="64px" height="64px" viewBox="0 0 64 64" enable-background="new 0 0 64 64" xml:space="preserve">
<path fill="#6A8E8E" d="M32,7C18.193,7,7,18.193,7,32s11.193,25,25,25c13.807,0,25-11.193,25-25C57,18.193,45.807,7,32,7z
	 M38.089,54.727V40.49c0-3.363-2.726-6.089-6.089-6.089c-3.363,0-6.089,2.726-6.089,6.089v14.237
	c-7.686-2.551-13.232-9.794-13.232-18.336c0-9.149,6.361-16.807,14.899-18.807c-1.588,1.288-2.605,3.253-2.605,5.458
	c0,3.881,3.146,7.026,7.026,7.026s7.026-3.146,7.026-7.026c0-2.205-1.016-4.169-2.605-5.458c8.538,2,14.899,9.658,14.899,18.807
	C51.321,44.933,45.775,52.176,38.089,54.727z"/>
</svg>
