<?xml version="1.0" encoding="utf-8"?>
<!-- Generator: Adobe Illustrator 17.0.0, SVG Export Plug-In . SVG Version: 6.00 Build 0)  -->
<!DOCTYPE svg PUBLIC "-//W3C//DTD SVG 1.1//EN" "http://www.w3.org/Graphics/SVG/1.1/DTD/svg11.dtd">
<svg version="1.1" id="Layer_1" xmlns="http://www.w3.org/2000/svg" xmlns:xlink="http://www.w3.org/1999/xlink" x="0px" y="0px"
	 width="64px" height="64px" viewBox="0 0 64 64" enable-background="new 0 0 64 64" xml:space="preserve">
<path fill="#7C8288" d="M31.999,7C18.19,7.003,7.001,18.192,7,32.001C7.001,45.808,18.19,56.997,31.999,57
	C45.808,56.997,56.998,45.808,57,32.001C56.998,18.192,45.808,7.003,31.999,7z M32.802,19.901
	c-7.901,0.001-15.098,5.74-15.104,13.178c0,0.264,0.009,0.532,0.028,0.802c0.004,0.066,0.05,0.121,0.114,0.138
	c0.065,0.015,0.131-0.011,0.166-0.066C20.481,30.113,23.647,27,28.489,27c6.243,0.002,11.181,4.81,11.183,11.221
	c0,6.085-4.561,11.062-10.356,11.554C20.683,48.485,14.039,41.027,14.022,32C14.041,22.073,22.073,14.04,32,14.022
	C41.928,14.04,49.959,22.073,49.977,32c-0.003,1.93-0.312,3.789-0.878,5.531c0.026-0.376,0.04-0.757,0.039-1.141
	C49.12,27.284,41.823,19.902,32.802,19.901z"/>
</svg>
