<?xml version="1.0" encoding="utf-8"?>
<!-- Generator: Adobe Illustrator 17.0.0, SVG Export Plug-In . SVG Version: 6.00 Build 0)  -->
<!DOCTYPE svg PUBLIC "-//W3C//DTD SVG 1.1//EN" "http://www.w3.org/Graphics/SVG/1.1/DTD/svg11.dtd">
<svg version="1.1" id="Layer_1" xmlns="http://www.w3.org/2000/svg" xmlns:xlink="http://www.w3.org/1999/xlink" x="0px" y="0px"
	 width="64px" height="64px" viewBox="0 0 64 64" enable-background="new 0 0 64 64" xml:space="preserve">
<path fill="#6B4739" d="M29.662,32c2.661-3.321,7.675-8.043,14.677-8.043c4.096,0,6.927,2.478,6.927,2.478
	s-3.699-4.132-10.453-4.132c-5.376,0-10.245,3.816-13.203,6.761c-1.268,1.262-2.185,2.364-2.64,2.937
	c0.455,0.573,1.373,1.675,2.64,2.937c2.958,2.946,7.827,6.762,13.203,6.762c6.755,0,10.454-4.133,10.454-4.133
	s-2.831,2.478-6.927,2.478C37.338,40.043,32.323,35.321,29.662,32z"/>
<path fill="#6B4739" d="M18.314,32c4.766-5.945,13.744-14.402,26.282-14.402c7.335,0,12.403,4.437,12.403,4.437
	s-6.622-7.4-18.717-7.4c-4.373,0-8.554,1.417-12.316,3.45c-1.541-0.957-2.968-2.396-4.33-2.896
	c-4.027-1.476-6.086,0.313-6.086,0.313s6.245-1.002,7.369,4.414c-1.065,0.704-2.082,1.443-3.05,2.2
	c-2.286-0.747-4.334-3.19-6.262-3.897C9.234,16.615,7,18.558,7,18.558s8.743-1.409,8.16,7.578c-0.002,0.037-0.005,0.07-0.007,0.107
	c-0.171,0.167-0.349,0.336-0.514,0.5c-2.27,2.259-3.914,4.233-4.727,5.258c0.814,1.026,2.458,2.999,4.727,5.258
	c0.165,0.164,0.343,0.332,0.514,0.5c0.002,0.037,0.005,0.069,0.007,0.106C15.743,46.851,7,45.442,7,45.442s2.234,1.943,6.606,0.34
	c1.928-0.708,3.976-3.15,6.262-3.897c0.968,0.757,1.986,1.495,3.051,2.2c-1.124,5.415-7.369,4.414-7.369,4.414
	s2.058,1.789,6.086,0.313c1.362-0.499,2.789-1.939,4.33-2.896c3.762,2.034,7.943,3.45,12.316,3.45c12.095,0,18.718-7.4,18.718-7.4
	s-5.068,4.437-12.403,4.437C32.057,46.403,23.079,37.946,18.314,32z"/>
</svg>
