<?xml version="1.0" encoding="utf-8"?>
<!-- Generator: Adobe Illustrator 17.0.0, SVG Export Plug-In . SVG Version: 6.00 Build 0)  -->
<!DOCTYPE svg PUBLIC "-//W3C//DTD SVG 1.1//EN" "http://www.w3.org/Graphics/SVG/1.1/DTD/svg11.dtd">
<svg version="1.1" id="Layer_1" xmlns="http://www.w3.org/2000/svg" xmlns:xlink="http://www.w3.org/1999/xlink" x="0px" y="0px"
	 width="64px" height="64px" viewBox="0 0 64 64" enable-background="new 0 0 64 64" xml:space="preserve">
<g>
	<path fill="#820E15" d="M39.164,36.2c-2.007-0.246-3.291,3.215-4.331,5.189c-0.605,0.25-1.144,0.836-1.383,1.239
		c-0.088-0.063-0.176-0.161-0.265-0.302c-0.741-1.186,0.243-3.245,0.445-5.583c0.346-4.002-5.188-4.051-4.447-6.967
		c0.406-1.595,3.059-1.41,5.021-1.463c0.135,0.374,0.041,0.776-0.253,1.191c-0.284,0.401-1.029,1.603-1.131,2.302
		c-0.272,0.083-0.525,0.302-0.628,0.593c-0.081,0.23,0.206,0.146,0.228,0.062c0.042-0.163,0.117-0.296,0.206-0.192
		c0.097,0.113,0.046,0.408,0.167,0.345c0.12-0.063,0.086-0.156,0.023-0.277c-0.047-0.089-0.124-0.238,0.001-0.292
		c0.029,0.191,0.15,0.303,0.419,0.274c0.07-0.007,0.135-0.022,0.204-0.033c-0.044,0.123-0.051,0.241,0.016,0.358
		c0.17,0.296,0.267,0.257,0.35,0.072c0.06-0.133-0.211-0.137-0.188-0.243c0.014-0.064,0.111-0.171,0.199-0.265
		c0.859-0.219,1.548-0.628,2.056-0.506c0.252,0.061,0.371,0.167,0.642,0.282c0.273,0.115,0.704-0.333,0.828-0.062
		c0.124,0.272,0.445,0.222,0.346,0.494c-0.099,0.272-0.094,0.155-0.21,0.247c-0.105,0.083-0.281-0.435-0.161,0.124
		c0.071,0.328,0.531,0.284,0.704,0.173s0.037-0.494,0.148-0.704c0.111-0.21-0.433-0.766-0.593-0.84
		c-0.161-0.074-0.099-0.309,0.086-0.284c0.185,0.025,0.173-0.309,0.383-0.309c0.21,0,0.086,0.47,0.296,0.556
		c0.21,0.087,0.212-0.052,0.432,0.025c0.423,0.148-0.167,0.537,0.21,0.306c0.217-0.133,0.074-0.404-0.012-0.54
		c-0.086-0.136-0.309-0.321-0.259-0.568c0.049-0.247-0.593-0.395-0.815-0.433c-0.159-0.027-0.436,0.135-0.536,0.217
		c0.041-0.101-0.106-0.396-0.106-0.526c0-0.148,0.333-0.037,0.519-0.037c0.185,0,0.085-0.374,0.21-0.309
		c0.306,0.157,0.084,0.448,0.148,0.42c0.324-0.142,0.049-0.544-0.025-0.766c-0.074-0.222-0.791,0.049-1.211,0.123
		c-0.42,0.074-0.148,0.617-0.272,1.038c-0.073,0.249-0.241,0.22-0.495,0.187c-0.278-0.037-0.519,0.075-0.833,0.094
		c-0.383,0.023-1.026,0.204-0.111-0.611c0.74-0.66,1.011-1.539,0.834-1.984c0.348-0.201,0.456-0.536,0.179-1.104
		c-1.038-2.124-6.571-6.028-4.051-6.373c0.687-0.094,1.189,0.435,1.362,0.649c-0.151,1.771-0.127,0.116,0.417,0.771
		c0.47,0.566,1.056,0.148,1.056,0.685s0.722,1.167,0.963,1.445c0.241,0.278,0.284,0.222,0.556,0.685
		c0.37,0.63,0.648,0.389,1.019,0.111c0.651-0.489-0.333,0.092-0.389-0.815c-0.019-0.314-0.259-0.482-0.648-0.722
		c-0.389-0.241-0.056-0.574-0.296-0.926c-0.241-0.352,0.37-0.074,0.76-0.074c0.389,0,0.648,0.167,0.852,0.556
		s1.056,0.908,1.278,0.945c0.222,0.037,0.337,0.038,0.278,0.389c-0.018,0.111,0.704,0.037,1.167-0.648
		c0.34-0.504-0.797-1.019-1.112-1.186c-0.315-0.167-0.556-0.296-0.574-0.556c-0.019-0.259-0.648-0.815-0.908-1.075
		c-0.259-0.259-0.389-0.204-0.13-0.315s-0.259-0.648-0.611-0.852s-0.389-0.574-0.871-1.056c-0.127-0.127-0.275-0.199-0.434-0.241
		c0.159-0.958-0.041-1.943-2.055-2.415c-1.052-0.247,0.815,0.37,0.914,0.865c0.124,0.617,0.223,0.148,0.247,0.593
		c0.025,0.445-0.074,0.346-0.074,0.716c0,0.099-0.02,0.171-0.049,0.23c-0.149,0.011-0.297,0.019-0.44,0.011
		c0,0-0.006,0.008-0.011,0.014c-0.126-0.024-0.306-0.054-0.524-0.083c0.075-0.852-0.238-1.918-1.811-2.228
		c-0.157-0.031-0.257-0.054-0.32-0.069c0.227,0.073,0.877,0.334,1.024,0.866c0,0,0.333,0.018,0.37,0.241
		c0.037,0.222-0.068,0.376,0.056,0.5c0.092,0.093,0.105,0.212,0.018,0.333c-0.066,0.093-0.137,0.19-0.217,0.282
		c-0.195-0.007-0.399-0.006-0.606,0.002c-0.183-0.497-0.552-0.88-1.049-1.055c-0.63-0.222-1.556,0.018-1.408,0.018
		c0.148,0,0.945-0.037,1.316,0.426c0.074,0.093,0.155,0.111,0.278,0.296c0.093,0.139,0.037,0.222,0,0.389
		c-0.002,0.008-0.009,0.017-0.012,0.026c-0.369,0.074-0.72,0.197-1.029,0.379c-0.216-0.397-0.594-0.798-1.268-1.023
		c-1.237-0.412-2.421,0.346-2.124,0.346c0.297,0,1.482-0.099,1.828,0.198c0.345,0.296,0.321,0.494,0.42,0.568
		s0.296,0.123,0.296,0.296c0,0.173-0.247,0.247-0.123,0.346c0.092,0.073-0.035,0.311-0.106,0.59
		c-0.46-0.176-0.897-0.144-1.352,0.077c-0.528,0.256-0.569,1.024-0.519,0.939c0.074-0.127,0.556-0.766,0.815-0.642
		c0.158,0.075,0.278,0.099,0.278,0.099s0.266-0.049,0.29,0.05s0.136,0.126,0.2,0.247c0.014,0.025,0.053,0.079,0.095,0.137
		c-0.017,0.219-0.01,0.436,0.016,0.651c-0.407,0.119-0.794,0.335-1.046,0.62c-0.491,0.556-0.406,1.873-0.296,1.945
		c0.028,0.019,0.185-1.316,0.63-1.288c0.259,0.016,0.151-0.312,0.25-0.25c0.148,0.093,0.213-0.13,0.38-0.009
		c0.108,0.078,0.306,0.019,0.519,0.38c0.003,0.005,0.006,0.008,0.009,0.013c0.954,1.947,2.957,3.384,2.109,3.384
		c-1.159,0-2.112,0.242-2.874,0.644c-0.7,0.097-1.64,0.168-2.043-0.187c-0.482-0.426-1.297,0.148-1.575-0.148
		c-0.278-0.296-0.593-1.093-0.593-1.612s-0.5-1.149-0.63-1.371c-0.129-0.222-0.111-0.63-0.092-0.963
		c0.018-0.333-0.738-0.318-1.019-0.445c-0.37-0.167-0.562,0.315-0.562,0.315c0.444-0.198,0.302,0.062,0.395,0.232
		c0.056,0.102,0.13,0.148,0.435,0.139c0.364-0.011,0.158,0.019,0.102,0.241c-0.056,0.222,0.093,0.519,0,0.445
		s-0.537,0.148-0.722,0.018c-0.185-0.13-0.333-0.333-0.537-0.556c-0.204-0.222-0.444-0.056-0.722-0.056s-0.426,0.667-0.333,0.537
		c0.093-0.13,0.284-0.259,0.389-0.222c0.165,0.058,0.018,0.167,0.185,0.296c0.167,0.13,0.389-0.185,0.463,0.074
		c0.074,0.259,0.556,0.333,0.667,0.426c0.111,0.092-0.167,0.055-0.389,0.055c-0.222,0-0.222,0.37-0.37,0.556
		c-0.148,0.185-0.389,0.259-0.445,0.482c-0.055,0.222,0.63,0.389,0.463,0.296c-0.167-0.092-0.074-0.222,0.074-0.222
		c0.148,0,0.111-0.5,0.278-0.5s0.296-0.185,0.389-0.074c0.092,0.111,0.407,0.019,0.63,0.019c0.222,0,0.086,0.296,0.433,0.741
		c0.341,0.439,0.155,1.262,0.149,2.231c-0.078,0.065-0.155,0.127-0.223,0.19c-0.222,0.204,0.018-0.5-0.13-0.574
		s-0.5-0.204-0.278,0.13c0.222,0.333,0.05,0.685-0.284,0.445c-0.333-0.241-0.377-0.221-0.315,0.071
		c0.031,0.145,0.509,0.343,1.047,0.167c0.092-0.03,0.161-0.061,0.221-0.09c0.068,0.229,0.232,0.322,0.459,0.355
		c0.012,0.204-0.092,0.437-0.421,1.014c-0.139,0.243-0.231,0.306-0.463,0.296c-0.165-0.007-0.742-0.175-0.754-0.155
		c-0.324,0.556,0.687,0.196,0.648,0.463c-0.028,0.194-0.829,0.361-0.824,0.472c0.018,0.445,0.407,0.241,0.963-0.222
		c0.436-0.363,1.026-1.257,1.317-1.86c0.308-0.021,0.668-0.067,1.061-0.067c0.653,0,0.975,0.168,1.163,0.447
		c-0.527,1.108-0.537,2.455-0.027,3.753c1.087,2.767,4.496,1.976,3.656,4.694c-0.153,0.496-0.321,1.121-0.458,1.799
		c-0.419-0.11-0.935-0.525-1.271-0.292c-0.482,0.333-1.149,2.026-1.408,1.445c-0.288-0.644-0.704-1.038-1.149-1.26
		c-0.445-0.222-0.679-0.284-0.371-0.296c0.309-0.013,0.272-0.062,0.259-0.259c-0.012-0.198-0.025-0.494-0.025-0.642
		s0.136-0.531-0.111-0.581s-0.407-0.247-0.519-0.025c-0.111,0.222-0.123,0.235-0.074,0.346s0.111-0.333,0.198-0.136
		c0.087,0.198-0.037,0.136,0,0.296c0.037,0.161,0.099,0.309-0.012,0.383c-0.111,0.074-0.383,0.185-0.408-0.111
		c-0.025-0.296-0.185-0.297-0.259-0.544s0.148-0.691-0.161-0.679c-0.309,0.012-0.284,0.123-0.358,0.111
		c-0.074-0.012-0.29,0.052-0.21,0.296c0.014,0.041,0.059-0.114,0.173-0.062c0.089,0.04-0.137,0.148,0.006,0.355
		c0.167,0.241,0.006,0.355,0.195,0.639c0.121,0.183,0.071,0.451-0.127,0.389c-0.198-0.062-0.643-0.111-0.766-0.296
		c-0.123-0.185-0.531-0.506-0.543-0.222c-0.013,0.284-0.074,0.395-0.222,0.544c-0.148,0.148-0.309,0.853-0.21,0.877
		c0.099,0.025,0.09,0.422,0.358,0.346c0.509-0.145,0.204-0.08,0.05-0.235c-0.228-0.228,0.136-0.083,0.247-0.281
		c0.111-0.198,0.145-0.482,0.195-0.333c0.049,0.148,0.312,0.145,0.583,0.269c0.272,0.124-0.148,0.395,0.222,0.482
		c0.37,0.086,0.653-0.055,0.976,0.173c1.363,0.961,1.102,2.499,1.888,3.287c-0.021,0.764-0.053,1.265-0.64,1.987
		c-0.311,0.382-0.275,0.373-0.148,0.556c0.111,0.161,0.432-0.754,0.408-0.333c-0.042,0.706-0.326,0.522-0.074,0.741
		c0.185,0.161,0.351-0.772,0.42-1.173c0.111-0.642,0.395-0.939,0.581-0.593c0.299,0.558,0.104,0.998,0.346,1.038
		c0.074,0.012,0.171,0.104,0.099-0.185c-0.099-0.395,0.042-0.502,0.173-0.284c0.333,0.556,0.296,0.877,0.37,0.889
		c0.061,0.01,0.272,0.161,0.173-0.259c-0.07-0.298-0.333-0.778-0.63-1.136c-0.123-0.149-0.497-0.43-0.566-1.199
		c0.598-0.422,1.396-1.983,1.641-1.629c0.215,0.31,0.319,0.855,0.524,1.189c0.199,1.2,0.76,2.207,1.971,2.615
		c1.478,0.498,2.541-0.363,3.399-1.632c0.025,0.049,0.047,0.105,0.065,0.17l-0.001,0.002c-0.228,1.124-1.088,1.114-0.936,1.242
		c0.198,0.169,0.516-0.303,0.544-0.167c0.019,0.091-0.451,0.402-0.218,0.43c0.236,0.029,0.309-0.449,0.454-0.576
		c0.185-0.163,0.277-0.033,0.156,0.589c-0.162,0.837-0.617,0.764-0.3,0.799c0.242,0.026,0.452-1.035,0.509-0.495
		c0.058,0.54-0.409,0.798-0.178,0.808c0.235,0.01,0.327-0.367,0.256-1.095c-0.015-0.152-0.037-0.327-0.059-0.509
		c0.169,0.161,0.313,0.31,0.409,0.483c0.124,0.222-0.21,0.346-0.062,0.519c0.148,0.173-0.062,0.42-0.062,0.531
		c0,0.111-0.136,0.198-0.049,0.346c0.086,0.148-0.256,0.015-0.235,0.049c0.089,0.139,0.025,0.161,0.296,0.235
		c0.313,0.085,0.185-0.358,0.407-0.469c0.222-0.111,0.124-0.494,0.235-0.346c0.111,0.148,0.321,0.235,0.444,0.407
		c0.124,0.173-0.099,0.321,0.037,0.445c0.172,0.156-0.132,0.109-0.111,0.148c0.077,0.148,0.259,0.111,0.445,0.062
		c0.185-0.049,0.074-0.407,0.099-0.691c0.025-0.284-0.148-0.247-0.346-0.482s0.062-0.531,0.185-0.432
		c0.123,0.099,0.235-0.012,0.346-0.012c0.111,0,0.111,0.074,0.235,0.222c0.124,0.148,0.185,0.062,0.333,0.111
		s-0.077,0.241-0.173,0.198c-0.028-0.012-0.037,0.043,0.161,0.148c0.132,0.07,0.148-0.222,0.309-0.222
		c0.161,0,0.062-0.259,0.062-0.457c0-0.198-0.457-0.198-0.506-0.457s-0.618,0.013-0.815-0.222c-0.331-0.393-0.593-0.395-1.013-0.42
		c-0.369-0.022,0.354-1.619,0.011-2.532c1.147-2.284,1.983-4.659,3.324-3.397c1.247,1.173,0.605,4.883,1.038,4.644
		C41.042,43.08,41.783,36.521,39.164,36.2z M35.755,19.599c0.103-0.254,0.351,0.142,0.699,0.622
		c0.035,0.302-0.113,0.581-0.113,0.581s0.141-0.172,0.246-0.395c0.293,0.417,0.508,1.162,0.508,1.162s-0.407-0.315-1.038-0.611
		C35.676,20.778,35.557,20.087,35.755,19.599z M31.76,15.941C31.667,15.912,31.648,15.913,31.76,15.941L31.76,15.941z"/>
	<path fill="#820E15" d="M7,32c0,13.785,11.215,25,25,25s25-11.215,25-25S45.785,7,32,7S7,18.215,7,32z M12.336,32
		c0-10.843,8.821-19.664,19.664-19.664c10.843,0,19.664,8.821,19.664,19.664S42.843,51.664,32,51.664
		C21.157,51.664,12.336,42.843,12.336,32z"/>
</g>
</svg>
