<?xml version="1.0" encoding="utf-8"?>
<!-- Generator: Adobe Illustrator 17.0.0, SVG Export Plug-In . SVG Version: 6.00 Build 0)  -->
<!DOCTYPE svg PUBLIC "-//W3C//DTD SVG 1.1//EN" "http://www.w3.org/Graphics/SVG/1.1/DTD/svg11.dtd">
<svg version="1.1" id="Layer_1" xmlns="http://www.w3.org/2000/svg" xmlns:xlink="http://www.w3.org/1999/xlink" x="0px" y="0px"
	 width="64px" height="64px" viewBox="0 0 64 64" enable-background="new 0 0 64 64" xml:space="preserve">
<path fill="#8C7050" d="M38.381,11.676c0,0,11.079,5.71,11.282,19.056H34.098v-5.07h-4.196v5.07H14.337
	c0.201-13.346,11.282-19.056,11.282-19.056S8.136,14.299,7,35.715h50C55.863,14.299,38.381,11.676,38.381,11.676z"/>
<path fill="#8C7050" d="M10.191,37.375c0,12.15,6.818,14.686,6.818,14.686s-2.623-4.721-2.623-10.577h15.035v10.839h5.158v-10.84
	h15.035c0,5.858-2.623,10.577-2.623,10.577s6.819-2.536,6.819-14.686L10.191,37.375L10.191,37.375z"/>
<rect x="23.477" y="44.106" fill="#8C7050" width="4.283" height="8.217"/>
<rect x="36.239" y="44.106" fill="#8C7050" width="4.284" height="8.217"/>
</svg>
