<?xml version="1.0" encoding="utf-8"?>
<!-- Generator: Adobe Illustrator 17.0.0, SVG Export Plug-In . SVG Version: 6.00 Build 0)  -->
<!DOCTYPE svg PUBLIC "-//W3C//DTD SVG 1.1//EN" "http://www.w3.org/Graphics/SVG/1.1/DTD/svg11.dtd">
<svg version="1.1" id="Layer_1" xmlns="http://www.w3.org/2000/svg" xmlns:xlink="http://www.w3.org/1999/xlink" x="0px" y="0px"
	 width="64px" height="64px" viewBox="0 0 64 64" enable-background="new 0 0 64 64" xml:space="preserve">
<path fill="#8C7050" d="M18.966,29.345l-0.167,0.164c-1.667,1.641-2.631,3.602-2.631,5.704c0-0.001,0-0.003,0-0.004
	c0,0.002,0,0.007,0,0.013c0,2.01,0.892,3.903,2.437,5.5l0.245-0.194c-0.716-1.102-1.112-2.312-1.114-3.591
	c0-1.909,0.892-3.676,2.399-5.137l0.095-0.092l-0.074-0.109c-0.438-0.641-0.808-1.323-1.1-2.039L18.966,29.345z"/>
<path fill="#8C7050" d="M32,7C18.192,7.002,7.001,18.192,7,32c0.001,13.81,11.192,24.999,25,25c13.807-0.001,24.997-11.191,25-25
	C56.998,18.192,45.807,7.002,32,7z M30.746,51.94c-0.716-0.046-1.421-0.129-2.116-0.249V35.755c0,0,0.964,0.183,1.561,0.878
	c0.598,0.695,0.549,1.802,0.549,1.802l0.006,0.094V51.94z M35.37,51.691c-0.694,0.119-1.4,0.202-2.116,0.249V38.539l0.006-0.103
	c0,0-0.049-1.107,0.549-1.802c0.597-0.696,1.561-0.879,1.561-0.879L35.37,51.691L35.37,51.691z M37.25,51.275V35.168
	c4.255-1.669,7.197-5.29,7.209-9.476c0.001-1.959-0.643-3.792-1.764-5.359c-0.047-0.064-0.134-0.085-0.203-0.046
	c-0.07,0.038-0.099,0.122-0.07,0.196c0.38,0.942,0.587,1.954,0.587,3.009c0.001,0,0,0.007,0.001,0.022
	c-0.016,5.185-4.955,9.337-11.011,9.348c-6.063-0.011-11.007-4.172-11.01-9.367c0-1.057,0.209-2.071,0.589-3.016
	c0.029-0.074,0-0.158-0.069-0.196c-0.071-0.038-0.156-0.019-0.204,0.046c-1.121,1.568-1.767,3.402-1.767,5.362
	c0.012,4.186,2.955,7.806,7.211,9.476v16.107c-8.484-2.315-14.718-10.057-14.734-19.275c0.019-10.615,8.281-19.275,18.731-19.939
	v12.84c-2.786,0.143-5.367,0.758-7.559,1.722l-0.155,0.068l0.083,0.15c0.406,0.745,0.951,1.432,1.611,2.044l0.071,0.067l0.091-0.035
	c2.095-0.781,4.522-1.228,7.111-1.229c2.589,0.001,5.015,0.448,7.11,1.23l0.091,0.034l0.071-0.066
	c0.659-0.613,1.204-1.3,1.611-2.045l0.084-0.15l-0.156-0.068c-2.192-0.964-4.773-1.579-7.557-1.722V12.061
	C43.703,12.724,51.965,21.385,51.985,32C51.967,41.218,45.734,48.961,37.25,51.275z"/>
<path fill="#8C7050" d="M45.198,29.508l-0.167-0.163l-0.089,0.216c-0.291,0.716-0.66,1.399-1.097,2.04L43.77,31.71l0.093,0.092
	c1.507,1.461,2.399,3.227,2.399,5.137c-0.002,1.279-0.398,2.489-1.113,3.591l0.245,0.194c1.541-1.592,2.431-3.479,2.435-5.486
	v-0.023C47.829,33.111,46.865,31.151,45.198,29.508z"/>
</svg>
