<?xml version="1.0" encoding="utf-8"?>
<!-- Generator: Adobe Illustrator 17.0.0, SVG Export Plug-In . SVG Version: 6.00 Build 0)  -->
<!DOCTYPE svg PUBLIC "-//W3C//DTD SVG 1.1//EN" "http://www.w3.org/Graphics/SVG/1.1/DTD/svg11.dtd">
<svg version="1.1" id="Layer_1" xmlns="http://www.w3.org/2000/svg" xmlns:xlink="http://www.w3.org/1999/xlink" x="0px" y="0px"
	 width="64px" height="64px" viewBox="0 0 64 64" enable-background="new 0 0 64 64" xml:space="preserve">
<path fill="#820E15" d="M24.226,40.841h15.549v-2.642H24.226V40.841z M24.226,43.89h15.549v-1.524H24.226V43.89z M32.001,7
	C18.192,7.001,7.002,18.191,7,32c0.002,13.809,11.192,24.999,25.001,25C45.808,56.998,56.999,45.808,57,32
	C56.999,18.191,45.808,7.001,32.001,7z M46.229,46.228c-3.651,3.645-8.665,5.892-14.229,5.893
	c-5.564-0.001-10.579-2.248-14.228-5.893C14.127,42.579,11.88,37.563,11.879,32c0.001-5.564,2.248-10.579,5.894-14.228
	c1.839-1.837,4.025-3.318,6.453-4.336v21.206h15.549V13.435c2.429,1.018,4.615,2.499,6.455,4.336
	c3.645,3.649,5.892,8.664,5.893,14.228C52.121,37.563,49.874,42.579,46.229,46.228z"/>
</svg>
