<svg xmlns="http://www.w3.org/2000/svg" width="64" height="64" viewBox="0 0 64 64"><path fill="#818181" d="M50.896 39.684c-4.621-1.752-4.342-1.049-4.342-4.297 0-2.098 1.037-1.328 1.695-5.323.257-1.574.469-.524 1.016-3.047.291-1.316-.201-1.417-.134-2.042.056-.625.111-1.194.224-2.478.135-1.607-1.295-5.805-6.406-5.805s-6.54 4.196-6.406 5.805c.102 1.294.168 1.853.225 2.478.055.625-.425.726-.135 2.042.547 2.522.76 1.463 1.016 3.047.658 3.995 1.687 3.237 1.687 5.323 0 1.496.347 2.121-1.663 3.07.604.211 1.307.469 2.153.793 6.071 2.309 5.927 4.553 6.083 5.613.111.725.167 6.506.189 8.57h10.902s0-8.984-.167-10.033c-.123-.826-1.229-1.918-5.937-3.716zm-7.625 13.75s0-1.572-.021-3.393c-.021-2.076-.078-4.463-.189-5.178-.168-1.063-1.597-2.479-7.656-4.789-.836-.313-1.539-.568-2.153-.791-3.716-1.318-3.449-1.752-3.449-5.357 0-2.712 1.339-.947 2.188-6.094.335-2.031.603-.682 1.306-3.928.379-1.697-.257-1.832-.179-2.646.078-.815.156-1.541.29-3.203.179-2.065-1.663-7.489-8.271-7.489-6.606 0-8.438 5.414-8.27 7.489.134 1.663.212 2.388.301 3.203.078.813-.559.938-.179 2.646.714 3.248.981 1.896 1.317 3.928.848 5.147 2.176 3.382 2.176 6.094 0 4.195.369 3.883-5.604 6.148-6.061 2.311-7.488 3.729-7.656 4.789-.222 1.35-.222 8.571-.222 8.571h36.271z"/></svg>