<?xml version="1.0" encoding="utf-8"?>
<!-- Generator: Adobe Illustrator 17.0.0, SVG Export Plug-In . SVG Version: 6.00 Build 0)  -->
<!DOCTYPE svg PUBLIC "-//W3C//DTD SVG 1.1//EN" "http://www.w3.org/Graphics/SVG/1.1/DTD/svg11.dtd">
<svg version="1.1" id="Layer_1" xmlns="http://www.w3.org/2000/svg" xmlns:xlink="http://www.w3.org/1999/xlink" x="0px" y="0px"
	 width="64px" height="64px" viewBox="0 0 64 64" enable-background="new 0 0 64 64" xml:space="preserve">
<g>
	<path d="M28.881,7.075c-0.002,0-0.004,0-0.006,0.001c-12.33,1.53-21.92,12.091-21.92,24.841c0,3.535,0.743,6.897,2.071,9.948
		l2.625-1.515c-1.082-2.6-1.696-5.443-1.696-8.432c0-11.089,8.239-20.299,18.918-21.82V7.081c0.005-0.001,0.009-0.001,0.014-0.001
		C28.885,7.078,28.883,7.077,28.881,7.075z"/>
	<path d="M34.89,7.043c-0.005,0.004-0.011,0.007-0.016,0.011v2.577h0.002c10.81,2,19.17,10.898,19.17,22.068
		c0,2.898-0.572,5.772-1.593,8.309l2.618,1.566c0.007-0.003,0.014-0.005,0.021-0.008c1.255-2.975,1.954-6.232,1.954-9.662
		C57.045,19.069,47.343,8.479,34.89,7.043z"/>
	<path d="M49.471,45.44C45.991,49.962,40.808,53,34.875,54C34.874,54,35,54,35,54v2h-6v-2.263c-6-0.817-10.817-3.862-14.246-8.215
		l-2.665,1.52c4.579,6.02,11.797,9.915,19.922,9.915c8.222,0,15.524-3.923,20.094-10.059L49.471,45.44z"/>
</g>
<rect x="29" y="52" fill="#00827E" width="6" height="4"/>
<rect x="30" y="21" width="4" height="22"/>
<rect x="38" y="21" width="4" height="22"/>
<rect x="22" y="21" width="4" height="22"/>
<rect x="10.261" y="18.96" transform="matrix(-0.5 0.866 -0.866 -0.5 38.0429 19.956)" fill="#00827E" width="6" height="4"/>
<rect x="47.861" y="19.177" transform="matrix(-0.5 -0.866 0.866 -0.5 57.9518 75.8116)" fill="#00827E" width="6" height="4"/>
</svg>
