<?xml version="1.0" encoding="utf-8"?>
<!-- Generator: Adobe Illustrator 17.0.0, SVG Export Plug-In . SVG Version: 6.00 Build 0)  -->
<!DOCTYPE svg PUBLIC "-//W3C//DTD SVG 1.1//EN" "http://www.w3.org/Graphics/SVG/1.1/DTD/svg11.dtd">
<svg version="1.1" id="Layer_1" xmlns="http://www.w3.org/2000/svg" xmlns:xlink="http://www.w3.org/1999/xlink" x="0px" y="0px"
	 width="64px" height="64px" viewBox="0 0 64 64" enable-background="new 0 0 64 64" xml:space="preserve">
<g>
	<path d="M52.555,24.069l0.059,0.181l0.015-0.005v0l2.858-0.929v0l4.735-1.539l-0.605-1.862l-5.867-0.289
		c-3.514-6.153-9.556-10.676-16.707-12.144L34.958,2H33v4.984v3V10h0.194C42.034,10.475,49.5,16.179,52.555,24.069z"/>
	<path d="M8.513,23.317l2.858,0.929v0l0.015,0.005l0.059-0.181C14.5,16.179,21.966,10.475,30.806,10H31V9.984v-3V2h-1.958
		l-2.085,5.483c-7.151,1.469-13.193,5.992-16.707,12.144l-5.867,0.289l-0.605,1.862L8.513,23.317L8.513,23.317z"/>
	<path d="M56.872,29.223l4.574-3.68l-0.605-1.862l-7.608,2.472l0.061,0.186c0.482,1.808,0.749,3.703,0.749,5.661
		c0,6.938-3.226,13.132-8.252,17.175l-0.049,0.035l0.257,0.354l1.509,2.077l0,0l2.936,4.041l1.584-1.151l-1.539-5.671
		c4.067-4.452,6.553-10.37,6.553-16.861C57.042,31.06,56.974,30.136,56.872,29.223z"/>
	<path d="M44.127,50.393L44.127,50.393l-0.005-0.007l-0.086,0.062C40.573,52.716,36.44,54.042,32,54.042s-8.573-1.326-12.037-3.594
		l-0.086-0.062l-0.005,0.007l0,0l-0.871,1.198l-3.827,5.267l1.584,1.151l4.913-3.213c3.152,1.434,6.644,2.246,10.327,2.246
		s7.175-0.811,10.327-2.246l4.913,3.213l1.584-1.151l-3.827-5.267L44.127,50.393z"/>
	<path d="M16.494,51.641l1.509-2.077l0.257-0.354l-0.049-0.035C13.185,45.132,9.958,38.938,9.958,32
		c0-1.958,0.267-3.853,0.749-5.661l0.061-0.186l-7.608-2.472l-0.605,1.862l4.574,3.68C7.026,30.136,6.958,31.06,6.958,32
		c0,6.491,2.487,12.408,6.553,16.861l-1.539,5.671l1.584,1.151L16.494,51.641L16.494,51.641z"/>
</g>
</svg>
