<?xml version="1.0" encoding="utf-8"?>
<!-- Generator: Adobe Illustrator 17.0.0, SVG Export Plug-In . SVG Version: 6.00 Build 0)  -->
<!DOCTYPE svg PUBLIC "-//W3C//DTD SVG 1.1//EN" "http://www.w3.org/Graphics/SVG/1.1/DTD/svg11.dtd">
<svg version="1.1" id="Layer_1" xmlns="http://www.w3.org/2000/svg" xmlns:xlink="http://www.w3.org/1999/xlink" x="0px" y="0px"
	 width="64px" height="64px" viewBox="0 0 64 64" enable-background="new 0 0 64 64" xml:space="preserve">
<rect x="21" y="21" width="4" height="22"/>
<rect x="29" y="21" width="4" height="10"/>
<rect x="39" y="21" width="4" height="10"/>
<g>
	<path d="M18.735,14.41C22.429,11.618,27.024,9.958,32,9.958c4.912,0,9.453,1.616,13.122,4.344l2.137-2.137
		C43.031,8.904,37.74,6.958,32,6.958c-5.804,0-11.148,1.99-15.399,5.316L18.735,14.41z"/>
	<path d="M51.542,16.367l-2.135,2.135c2.901,3.733,4.635,8.415,4.635,13.498c0,4.976-1.659,9.571-4.451,13.264l2.135,2.135
		c3.326-4.251,5.316-9.595,5.316-15.399C57.042,26.09,54.979,20.655,51.542,16.367z"/>
	<path d="M45.357,49.517c-3.709,2.835-8.339,4.524-13.358,4.524c-5.082,0-9.765-1.734-13.497-4.635l-2.135,2.135
		c4.288,3.437,9.722,5.5,15.632,5.5c5.846,0,11.227-2.019,15.493-5.389L45.357,49.517z"/>
	<path d="M14.302,45.122C11.575,41.453,9.958,36.912,9.958,32c0-5.019,1.689-9.649,4.525-13.358l-2.135-2.135
		c-3.37,4.266-5.39,9.646-5.39,15.493c0,5.74,1.946,11.031,5.206,15.259L14.302,45.122z"/>
</g>
<rect x="29" y="52" fill="#00827E" width="6" height="4"/>
<rect x="8" y="29" fill="#00827E" width="4" height="6"/>
<rect x="52" y="29" fill="#00827E" width="4" height="6"/>
<rect x="29" y="8" fill="#00827E" width="6" height="4"/>
<polygon points="29,31 34,43 38,43 43,31 39,31 36.969,37 35,37 33,31 "/>
</svg>
