<?xml version="1.0" encoding="utf-8"?>
<!-- Generator: Adobe Illustrator 17.0.0, SVG Export Plug-In . SVG Version: 6.00 Build 0)  -->
<!DOCTYPE svg PUBLIC "-//W3C//DTD SVG 1.1//EN" "http://www.w3.org/Graphics/SVG/1.1/DTD/svg11.dtd">
<svg version="1.1" id="Layer_1" xmlns="http://www.w3.org/2000/svg" xmlns:xlink="http://www.w3.org/1999/xlink" x="0px" y="0px"
	 width="64px" height="64px" viewBox="0 0 64 64" enable-background="new 0 0 64 64" xml:space="preserve">
<rect x="25" y="21" width="4" height="10"/>
<rect x="35" y="21" width="4" height="10"/>
<polygon points="25,31 30,43 34,43 39,31 35,31 32.969,37 31,37 29,31 "/>
<g>
	<path d="M12.162,22.307C15.319,15.809,21.577,11.09,29,10.075V7.051c-8.753,1.05-16.128,6.629-19.711,14.322L12.162,22.307z"/>
	<path d="M14.969,50.244l1.778-2.447c-4.18-4.014-6.789-9.651-6.789-15.89c0-1.329,0.125-2.629,0.351-3.893l-2.88-0.936
		c-0.307,1.563-0.472,3.177-0.472,4.829C6.958,39.143,10.046,45.668,14.969,50.244z"/>
	<path d="M35,10.075c7.423,1.015,13.681,5.734,16.838,12.232l2.873-0.933C51.128,13.68,43.753,8.101,35,7.051V10.075z"/>
	<path d="M53.691,28.014c0.226,1.265,0.351,2.564,0.351,3.893c0,6.239-2.609,11.876-6.789,15.89l1.778,2.447
		c4.923-4.576,8.011-11.101,8.011-18.337c0-1.652-0.165-3.266-0.472-4.829L53.691,28.014z"/>
	<path d="M42.405,51.332C39.304,53,35.761,53.949,32,53.949S24.696,53,21.595,51.332l-1.775,2.444
		c3.608,2.018,7.761,3.173,12.181,3.173s8.573-1.155,12.181-3.173L42.405,51.332z"/>
</g>
<g>
	<rect x="49.923" y="36.798" transform="matrix(0.309 -0.9511 0.9511 0.309 -0.3304 77.142)" fill="#00827E" width="6" height="4"/>
	<rect x="57.105" y="39.307" transform="matrix(0.309 -0.9511 0.9511 0.309 2.0309 84.4092)" fill="#00827E" width="4" height="3"/>
</g>
<g>
	
		<rect x="41.931" y="12.202" transform="matrix(-0.809 -0.5878 0.5878 -0.809 72.9339 52.1009)" fill="#00827E" width="6" height="4"/>
	
		<rect x="46.752" y="7.443" transform="matrix(-0.809 -0.5878 0.5878 -0.809 82.9364 44.8337)" fill="#00827E" width="4" height="3"/>
</g>
<g>
	
		<rect x="16.069" y="12.202" transform="matrix(-0.809 0.5878 -0.5878 -0.809 42.8432 14.4827)" fill="#00827E" width="6" height="4"/>
	
		<rect x="13.248" y="7.443" transform="matrix(-0.809 0.5878 -0.5878 -0.809 32.8407 7.2154)" fill="#00827E" width="4" height="3"/>
</g>
<g>
	<rect x="8.077" y="36.798" transform="matrix(0.309 0.9511 -0.9511 0.309 44.5533 16.2744)" fill="#00827E" width="6" height="4"/>
	<rect x="2.895" y="39.307" transform="matrix(0.309 0.9511 -0.9511 0.309 42.192 23.5416)" fill="#00827E" width="4" height="3"/>
</g>
<g>
	<rect x="29" y="52" fill="#00827E" width="6" height="4"/>
	<rect x="30" y="59" fill="#00827E" width="4" height="3"/>
</g>
</svg>
