<?xml version="1.0" encoding="utf-8"?>
<!-- Generator: Adobe Illustrator 17.0.0, SVG Export Plug-In . SVG Version: 6.00 Build 0)  -->
<!DOCTYPE svg PUBLIC "-//W3C//DTD SVG 1.1//EN" "http://www.w3.org/Graphics/SVG/1.1/DTD/svg11.dtd">
<svg version="1.1" id="Layer_1" xmlns="http://www.w3.org/2000/svg" xmlns:xlink="http://www.w3.org/1999/xlink" x="0px" y="0px"
	 width="64px" height="64px" viewBox="0 0 64 64" enable-background="new 0 0 64 64" xml:space="preserve">
<g>
	<path d="M10.205,29C11.798,18.402,20.964,10.25,32,10.25S52.202,18.402,53.795,29h3.024C55.201,16.743,44.692,7.25,32,7.25
		S8.799,16.743,7.181,29H10.205z"/>
	<path d="M53.87,35C52.53,45.88,43.237,54.333,32,54.333S11.47,45.88,10.13,35H7.107c1.355,12.539,12,22.333,24.893,22.333
		S55.538,47.539,56.893,35H53.87z"/>
</g>
<rect x="26" y="21" width="4" height="22"/>
<rect x="34" y="21" width="4" height="22"/>
<rect x="29" y="52" fill="#00827E" width="6" height="4"/>
<rect x="29" y="8" fill="#00827E" width="6" height="4"/>
</svg>
