<?xml version="1.0" encoding="utf-8"?>
<!-- Generator: Adobe Illustrator 17.0.0, SVG Export Plug-In . SVG Version: 6.00 Build 0)  -->
<!DOCTYPE svg PUBLIC "-//W3C//DTD SVG 1.1//EN" "http://www.w3.org/Graphics/SVG/1.1/DTD/svg11.dtd">
<svg version="1.1" id="Layer_1" xmlns="http://www.w3.org/2000/svg" xmlns:xlink="http://www.w3.org/1999/xlink" x="0px" y="0px"
	 width="64px" height="64px" viewBox="0 0 64 64" enable-background="new 0 0 64 64" xml:space="preserve">
<g>
	<path fill="#8C7050" d="M17.754,26.846c0.726,1.515,1.868,2.881,3.314,4.017c3.244-1.172,6.969-1.839,10.932-1.839
		c3.814,0,7.406,0.621,10.564,1.712c1.432-1.161,2.548-2.551,3.243-4.09c-3.957-1.748-8.703-2.77-13.807-2.77
		C26.704,23.876,21.797,24.975,17.754,26.846 M10.427,32.111C8.252,34.579,7,37.451,7,40.518c0,3.205,1.363,6.196,3.72,8.735
		c-0.943-1.641-1.463-3.419-1.463-5.278c0-2.867,1.23-5.544,3.359-7.821C11.715,34.895,10.979,33.54,10.427,32.111 M57,40.518
		c0-3.239-1.394-6.259-3.798-8.816c-0.522,1.459-1.241,2.844-2.126,4.135c2.317,2.341,3.668,5.135,3.668,8.137
		c0,1.859-0.521,3.637-1.463,5.278C55.638,46.714,57,43.723,57,40.518"/>
	<path fill="#8C7050" d="M51.376,25.992c0-4.341-1.979-8.29-5.218-11.245c2.063,2.317,3.279,5.15,3.279,8.212
		c0,7.828-7.925,14.175-17.701,14.175c-9.777,0-17.702-6.347-17.702-14.175c0-3.062,1.216-5.895,3.279-8.212
		c-3.238,2.955-5.218,6.904-5.218,11.245c0,8.056,6.815,14.768,15.845,16.26l-0.001,0.001c0,0,1.005,0.141,1.887,1.569
		c1.328,2.152,1.904,4.02,1.904,4.02s0.576-1.868,1.904-4.02c0.84-1.362,1.783-1.551,1.869-1.566
		C44.548,40.773,51.376,34.056,51.376,25.992"/>
</g>
</svg>
