<?xml version="1.0" encoding="utf-8"?>
<!-- Generator: Adobe Illustrator 17.0.0, SVG Export Plug-In . SVG Version: 6.00 Build 0)  -->
<!DOCTYPE svg PUBLIC "-//W3C//DTD SVG 1.1//EN" "http://www.w3.org/Graphics/SVG/1.1/DTD/svg11.dtd">
<svg version="1.1" id="Layer_1" xmlns="http://www.w3.org/2000/svg" xmlns:xlink="http://www.w3.org/1999/xlink" x="0px" y="0px"
	 width="64px" height="64px" viewBox="0 0 64 64" enable-background="new 0 0 64 64" xml:space="preserve">
<g>
	<path fill="#6B4739" d="M46.767,11.919L36.19,31.354c-1.795-1.535-4.021-2.443-6.433-2.443c-5.944,0-10.762,5.518-10.762,12.326
		c0,4.773,2.796,8.643,6.07,10.88c3.01,2.056,6.538,2.99,10.411,2.99C47.363,55.107,57,45.141,57,32.848
		C57,24.255,52.971,16.638,46.767,11.919 M29.949,26.057c1.911,0,3.741,0.373,5.429,1.055l8.915-16.852
		c-3.63-2.131-7.825-3.347-12.294-3.347c-3.097,0-6.062,0.586-8.799,1.654l5.811,17.523C29.322,26.07,29.634,26.057,29.949,26.057
		 M25.821,26.662L20.275,9.938c-5.056,2.791-9.08,7.329-11.32,12.839l10.555,7.661C21.276,28.685,23.431,27.373,25.821,26.662
		 M17.466,32.92L7.89,25.97C7.311,28.16,7,30.466,7,32.848c0,2.714,0.404,5.33,1.149,7.789h6.552
		C14.995,37.778,15.977,35.142,17.466,32.92 M14.667,43.844h-5.31c2.739,6.06,7.669,10.842,13.734,13.243
		C18.434,54.599,15.131,49.654,14.667,43.844"/>
</g>
</svg>
