<?xml version="1.0" encoding="utf-8"?>
<!-- Generator: Adobe Illustrator 17.0.0, SVG Export Plug-In . SVG Version: 6.00 Build 0)  -->
<!DOCTYPE svg PUBLIC "-//W3C//DTD SVG 1.1//EN" "http://www.w3.org/Graphics/SVG/1.1/DTD/svg11.dtd">
<svg version="1.1" id="Layer_1" xmlns="http://www.w3.org/2000/svg" xmlns:xlink="http://www.w3.org/1999/xlink" x="0px" y="0px"
	 width="64px" height="64px" viewBox="0 0 64 64" enable-background="new 0 0 64 64" xml:space="preserve">
<g>
	<path fill="#7C8288" d="M32,7C18.193,7,7,18.193,7,32s11.193,25,25,25c13.807,0,25-11.193,25-25C57,18.193,45.807,7,32,7
		 M25.778,28.883c1.144-2.28,3.497-3.848,6.222-3.848c3.847,0,6.965,3.119,6.965,6.965S35.846,38.965,32,38.965
		c-2.724,0-5.077-1.568-6.222-3.848l-5.119,1.687c1.872,4.414,6.245,7.509,11.34,7.509c4.752,0,8.868-2.697,10.921-6.639
		l4.898,1.904c-2.828,5.891-8.848,9.959-15.819,9.959c-9.685,0-17.537-7.852-17.537-17.537S22.314,14.462,32,14.462
		c6.971,0,12.991,4.067,15.819,9.959l-4.898,1.904c-2.053-3.943-6.169-6.639-10.921-6.639c-5.095,0-9.468,3.096-11.34,7.509
		L25.778,28.883z"/>
</g>
</svg>
