<?xml version="1.0" encoding="utf-8"?>
<!-- Generator: Adobe Illustrator 17.0.0, SVG Export Plug-In . SVG Version: 6.00 Build 0)  -->
<!DOCTYPE svg PUBLIC "-//W3C//DTD SVG 1.1//EN" "http://www.w3.org/Graphics/SVG/1.1/DTD/svg11.dtd">
<svg version="1.1" id="Layer_1" xmlns="http://www.w3.org/2000/svg" xmlns:xlink="http://www.w3.org/1999/xlink" x="0px" y="0px"
	 width="64px" height="64px" viewBox="0 0 64 64" enable-background="new 0 0 64 64" xml:space="preserve">
<g>
	<path d="M38.136,52.329c1.263-1.123,1.263-0.737,1.755-1.228c0.491-0.491,1.509-0.737,1.825-1.158
		c0.316-0.421,0.281-0.632,0.526-0.632c0.246,0,0.421,0.211,0.737-0.141c0.316-0.351,0.702-0.737,0.702-1.123
		c0-0.386,0.14-1.509,0.14-1.79s0.491-2.351,0.491-2.913c0-0.561-0.07-1.439-0.386-1.439s-0.877,0.07-0.912,0.316
		c-0.035,0.246-0.561,1.684-0.632,2.281c-0.07,0.597-0.386,1.334-0.807,1.509c-0.421,0.176-1.439,0-1.86-0.07
		s-1.158,0.07-1.263,0.421c-0.105,0.351,0.14,0.561,0.105,0.807c-0.035,0.246-0.421,1.018-0.526,1.439
		c-0.105,0.421-0.246,1.018-0.246,1.333c0,0.316,0.07,1.158-0.561,1.193c-0.632,0.035-0.772-0.842-0.772-1.123
		c0-0.281-0.211-0.807-0.561-0.807c-0.351,0-0.877,0.526-1.088,0.632c-0.211,0.105-0.842,0.211-0.842,0.386
		c0,0.175,0.07,0.491-0.105,0.456c-0.175-0.035-0.698-1.496-1.263-1.684c-0.105-0.035,0.211,2.597-0.327,2.129
		c-0.399-0.347,0.047-1.334-0.339-1.357c-0.28-0.017-0.597,0.175-0.983,0.175c-0.386,0-0.702-0.281-0.877-0.281
		c-0.176,0-0.561,0.105-0.772,0.035c-0.21-0.07-0.491-0.351-0.667-0.316c-0.176,0.035-0.281,0.07-0.456-0.07
		c-0.175-0.141-0.14-0.597-0.281-0.386c-0.14,0.211-0.351,0.491-0.351,0.737s-0.035,0.562-0.14,0.772
		c-0.105,0.211-0.667,1.018-0.667,1.263s-0.386,0.597-0.351,0.842s0.246,0.281,0.246,0.456c0,0.175-0.14,0.526,0.035,0.702
		c0.175,0.175,0.526,0.421,0.772,0.491c0.246,0.07,0.526-0.141,0.667,0.035c0.141,0.176,0.456,0.281,1.228,0.983
		c0.772,0.702,1.018,1.088,1.299,1.298c0.281,0.211,0.737,0.035,0.877,0.211c0.141,0.176,0.456,0.246,0.561,0.246
		c0.105,0,0.456-0.141,0.667-0.141c0.21,0,1.088,0.281,1.228,0.141c0.141-0.141,1.123-1.369,1.439-1.825
		c0.316-0.456,1.193-1.228,1.474-1.439C37.153,53.487,38.136,52.329,38.136,52.329z"/>
	<path d="M45.412,34.279c-0.047-1.006-0.226-1.684-0.491-2.012c-0.491-0.608-2.386-2.457-3.299-3.135
		c-0.912-0.678-2.503-1.895-2.831-1.872c-0.327,0.024-0.842,0.608-0.819,0.959c0.023,0.351,0.187,0.468,0.023,0.678
		c-0.164,0.21-0.936,0.819-0.842,0.491c0.093-0.327,0.561-0.444,0.608-0.795c0.047-0.351,0.164-2.386,0.327-2.994
		c0.164-0.608,0.398-2.714,0.561-3.86c0.164-1.146,0.515-4.001,0.561-5.147c0.047-1.146,0.094-3.111-0.047-3.977
		c-0.14-0.866-0.936-2.877-1.848-3.79C36.404,7.913,34.182,6.977,32.825,7c-1.357,0.023-5.919,0.819-7.229,1.521
		c-1.31,0.702-6.27,2.457-4.562,2.574c1.708,0.117,4.375-0.561,5.264-0.538c0.889,0.023,2.503-0.351,3.345,0.07
		c0.842,0.421,1.568,0.889,1.661,1.638c0.093,0.749,0.725,3.018,1.076,5.03c0.351,2.012,1.544,9.896,1.287,9.92
		c-0.257,0.023-2.316,0.117-3.018,0.351c-0.702,0.234-3.135,1.404-3.93,2.597c-0.795,1.193-1.755,3.135-1.872,3.79
		c-0.117,0.655-0.215,1.442-0.398,2.082c-0.281,0.983-1.435,1.667-1.334,1.801c0.281,0.374,0.193,0.509,0.263,0.86
		c0.07,0.351,0.404,0.895,0.772,1.211c0.369,0.316,1.176,1.386,1.193,1.193c0.018-0.193-0.351-0.895-0.474-1.176
		s-0.684-1.123-0.614-1.228c0.07-0.105-0.246-0.339-0.193-0.146s0.281,0.842,0.175,0.643c-0.122-0.23-0.38-0.871-0.257-0.819
		c0.123,0.053,0.626,0.076,0.731,0.199c0.105,0.123,0.948,0.825,1.281,0.983s0.842,0.246,1.018,0.404
		c0.175,0.158,0.942,0.415,0.749,0.696c-0.193,0.281-0.977,0.076-1.398,0.409c-0.421,0.333-0.714,0.743-0.977,0.795
		c-0.263,0.053-1.084,0.634-1.076,1.047c0.012,0.614,0.561,1.387,0.983,1.843c0.282,0.305,1,1.07,0.807,0.737
		c-0.193-0.333-0.509-0.79-0.684-1.018c-0.175-0.228-0.368-0.333-0.21-0.526c0.158-0.193,1.404-0.719,1.474-0.421
		c0.07,0.298,0.158,0.649,0.175,1.14c0.018,0.491,0.035,1.351,0.07,1.878c0.035,0.526-0.018,0.912,0.07,1.07
		c0.088,0.158,0.316,0.211,0.544,0.211s0.298,0.035,0.298-0.053s0.07-0.228,0.193-0.228c0.123,0,0.246,0.456,0.281,0.544
		c0.035,0.087,0.404,0.07,0.597,0.07s0.456,0,0.509-0.053c0.053-0.052,0.088-0.158,0.281-0.14c0.193,0.017,0.158,0.158,0.246,0.246
		c0.088,0.088,0.673,0.047,0.872,0.041c0.632-0.018,1.006,0.07,1.006-0.093s-0.117-0.889,0.093-0.889
		c0.211,0,0.679-0.211,0.866-0.094c0.187,0.117,0.421,0.491,0.561,0.795c0.14,0.304,0.426,1.249,0.561,1.1
		c0.444-0.491,0.374-1.661,0.608-1.848c0,0,0.262-0.21,0.491-0.164c0.819,0.164,0.83,0.772,1.041,0.772c0,0,0.981,0.002,1.135-0.234
		c0.152-0.234,0.643-1.568,0.515-1.591c-0.257-0.047-0.889,0-1.029,0.211c-0.14,0.211-0.848,0.601-0.912,0.468
		c-0.152-0.316,0.538-0.994,0.292-0.994c0,0-0.76-0.561-1.146-0.889c-0.386-0.327-1.614-1.158-1.135-1.158
		c0.48,0,0.889,0.269,1.029,0.444c0.14,0.175,0.678,0.667,0.924,0.526c0.246-0.141,0.69-0.959,0.912-0.901
		c0.222,0.059,0.269,0.304,0.573,0.304c0.304,0,0.351-0.257,0.585-0.257c0.234,0,2.059,0.093,2.433-0.211
		c0.374-0.304,0.749-0.585,0.749-0.702s0.421-0.398,0.515-0.164c0.094,0.234,0.187,0.187,0.047,0.468
		c-0.14,0.281-0.426,1.335-0.983,1.52c-0.561,0.187-0.983,0.351-1.427,0.374c0,0-1.029,0.257-0.679,0.257
		c0.351,0,0.725-0.093,1.1-0.117c0.374-0.024,1.287-0.094,1.497-0.281c0.21-0.187,0.491-1.006,0.655-1.31
		c0.164-0.304,0.451-0.75,0.398-1.029c-0.117-0.608-0.655-1.216-0.655-1.591c0-0.375,1.546-1.768,2.129-2.316
		c0.398-0.374,1.076-1.123,1.216-1.497C44.92,36.783,45.486,35.87,45.412,34.279z M29.24,43.152c0.018,0.298,0,0.141,0,0.298
		c0,0.158-0.178,0.407-0.211,0.649c-0.088,0.649-0.123,0.649-0.614,0.702c-0.271,0.029-0.632-0.614-0.667-0.79
		c-0.035-0.175,0.184-0.254,0.228-0.561c0.07-0.491,0.386-0.737,0.509-0.912c0.123-0.176-0.123-0.193-0.14-0.386
		c-0.018-0.193,0.211-0.211,0.474-0.193c0.263,0.018,0.439,0.684,0.526,0.807C29.433,42.889,29.22,42.819,29.24,43.152z
		 M32.784,10.499c-0.86-1.035-2.667-0.86-4.246-0.86c-1.579,0,4.264-0.526,5.194-0.474c0.93,0.053,1.527,1.246,2.808,2.948
		c1.281,1.702,0.877,3.351,0.807,5.071s-0.456,7.703-0.544,8.843c-0.088,1.14-0.123,2.948-0.456,3.123s-1.667-1.105-1.772-1.298
		c-0.105-0.193-0.177-2.23-0.333-3.825c-0.176-1.79-0.158-1.456-0.263-2.737c-0.105-1.281,0.491,1.772,0.597,2.421
		c0.105,0.649,0.456,3.018,0.632,3.474c0.175,0.456,0.386,0.193,0.702-0.456c0.316-0.649,0.211-3.738,0.193-6.633
		c-0.018-2.895-0.088-5.439-0.088-5.58s-0.439-0.123-0.93-0.737C34.591,13.166,33.644,11.534,32.784,10.499z M32.03,44.381
		c-0.123,0.088-0.123,0.597-0.404,0.719c-0.281,0.123-0.544,0.035-0.702-0.122c-0.158-0.158-0.439-0.333-0.719-0.527
		c-0.281-0.193-0.202-0.598-0.158-1.263c0.018-0.263-0.035-0.544-0.158-0.772c-0.123-0.228-0.158-0.439,0-0.597
		c0.158-0.158,0.456,0.175,0.597,0.316c0.14,0.141,0.895,1,1.351,1.527C32.293,44.187,32.153,44.293,32.03,44.381z M38.019,42.515
		c-0.141,0-1.778,0-1.918-0.047c-0.14-0.047-0.936-0.047-1.216-0.047c-0.281,0-0.561-0.281-0.795-0.608
		c-0.234-0.328-1.076-0.608-1.825-0.842c-0.749-0.234-1.357-0.842-1.544-0.889c-0.187-0.047,0.421-0.327,0.795-0.561
		c0.374-0.234,1.191-0.87,2.106-1.684c0.907-0.807,0.409-0.351,0.708-0.754c0.298-0.404,0.544-0.842,0.965-1.369
		s1.193-1.211,1.702-1.211c0.509,0,0.754,0.667,0.982,0.965c0.228,0.298,0.421,0.877,0.632,1.228
		c0.211,0.351-0.509-0.614-0.649-0.877c-0.141-0.263-0.561-0.702-1.088-0.772c-0.526-0.07-1.088,0.561-1.286,0.778
		c-0.184,0.201,1.076,0.257,1.45,1.31c0.148,0.416,0.468,0.983,0.655,1.17c0.187,0.187,0.14,1.123,0.14,1.31
		c0,0.187,0.234-0.047,0.281-0.328c0.047-0.281,0.141,0.421,0.141,0.655c0,0.234-0.328,0.608-0.421,0.842
		c-0.093,0.234-0.421,1.31-0.702,1.45c-0.281,0.141,0.561,0.047,0.889-0.093c0.327-0.141,1.029-1.263,1.17-1.497
		C39.329,40.409,38.159,42.515,38.019,42.515z"/>
	<path d="M26.462,23.471c-0.643-2.163-1.989-4.889-2.877-5.638c-0.889-0.749-1.778-0.866-2.386-1.263
		c-0.608-0.398-1.521-0.866-1.918-0.866c-0.398,0-2.036,0.304-2.831,0.421s-2.152,0.468-3.158,0.725
		c-1.006,0.257-1.638,0.725-2.012,0.842s-1.263,0.211-1.357,0.304c-0.093,0.093-0.327,0.351-0.585,0.468
		c-0.257,0.117-2.176,0.725-2.457,1.053c-0.281,0.327-0.468,1.146-0.07,1.38c0.398,0.234,1.31,0.07,1.848-0.07
		c0.538-0.14,1.404-0.211,2.644-0.281c1.24-0.07,2.714-0.047,3.392,0.023c0.678,0.07,2.152,0.094,3.088,0.515
		c0.936,0.421,2.035,1.591,2.878,2.714s2.129,2.48,2.901,3.345c0.772,0.866,2.932,2.77,2.901,2.34
		c-0.023-0.327-1.068-1.388-1.287-1.614c-0.678-0.702-1.287-1.708-0.983-1.451c0.304,0.257,1.006,1.053,1.24,1.217
		c0.234,0.164,0.608,0.047,0.327-0.444s-1.17-2.901-1.684-4.118c-0.515-1.217-0.912-2.48-1.31-2.971
		c-0.398-0.491-1.006-1.146-1.193-0.936c-0.187,0.211-1.029,1.053-1.029,0.772c0-0.281,0-0.889-0.421-1.146
		c-0.421-0.257-0.678-0.351-1.006-0.281c-0.327,0.07-0.632,0.093-0.795,0.327c-0.164,0.234-0.702,0.14-0.468,0.398
		s0.585,0.632,0.117,0.585c-0.468-0.047-0.772-0.304-1.053-0.327s-0.515-0.211-0.702-0.281c-0.187-0.07-0.187,0.187-0.561,0.187
		c-0.374,0-0.444-0.164-0.608-0.164s-0.211,0.211-0.468,0.211s-0.281-0.281-0.491-0.281s-0.398,0.257-0.842,0.304
		c-0.444,0.047-1.567,0.07-1.918,0.304c-0.351,0.234-2.714,0.351-1.146-0.234s2.41-1.146,3.182-1.38
		c0.772-0.234,2.41-0.959,2.995-1.029c0.585-0.07,1.755-0.374,2.433-0.187s2.082,0.912,2.737,1.263
		c0.655,0.351,1.778,1.076,2.691,3.299c0.912,2.223,2.082,5.474,2.293,5.989c0.21,0.515,0.491,1.287,0.749,1.217
		c0.257-0.07,0.608-0.351,0.608-0.749S26.976,25.203,26.462,23.471z"/>
</g>
</svg>
