<?xml version="1.0" encoding="utf-8"?>
<!-- Generator: Adobe Illustrator 17.0.0, SVG Export Plug-In . SVG Version: 6.00 Build 0)  -->
<!DOCTYPE svg PUBLIC "-//W3C//DTD SVG 1.1//EN" "http://www.w3.org/Graphics/SVG/1.1/DTD/svg11.dtd">
<svg version="1.1" id="Layer_1" xmlns="http://www.w3.org/2000/svg" xmlns:xlink="http://www.w3.org/1999/xlink" x="0px" y="0px"
	 width="64px" height="64px" viewBox="0 0 64 64" enable-background="new 0 0 64 64" xml:space="preserve">
<g>
	<path d="M35.275,46.274c0,1.809-1.466,3.275-3.276,3.275s-3.275-1.466-3.275-3.275c0-1.809,1.466-3.276,3.275-3.276
		S35.275,44.465,35.275,46.274"/>
	<path d="M7,29.783c0,0,2.604,3.908,5.196,5.987c2.037,1.633,3.66,2.475,4.561,2.475c0.73,0,2.63-1.683,2.63-1.683l-3.366-2.208
		c0,0-1.472,0.105-4.207-1.578C9.08,31.093,7,29.783,7,29.783"/>
	<path d="M57,29.783c0,0-2.605,3.908-5.196,5.987c-2.037,1.633-3.66,2.475-4.561,2.475c-0.729,0-2.629-1.683-2.629-1.683
		l3.365-2.208c0,0,1.473,0.105,4.208-1.578C54.92,31.093,57,29.783,57,29.783"/>
	<path d="M21.03,38.311c0,0-2.796,2.033-2.796,5.93c0,5.422,7.201,9.234,7.201,9.234s-3.388-4.066-3.388-6.862
		c0-2.796,3.388-5.083,3.388-5.083L21.03,38.311z"/>
	<path d="M42.97,38.311c0,0,2.796,2.033,2.796,5.93c0,5.422-7.202,9.234-7.202,9.234s3.388-4.066,3.388-6.862
		c0-2.796-3.388-5.083-3.388-5.083L42.97,38.311z"/>
	<path d="M48.265,23.401c0-8.472-7.342-12.876-7.342-12.876s3.727,2.598,3.727,8.923c0,6.672-5.17,9.77-7.876,10.935
		c-0.327-0.222-0.677-0.42-1.045-0.594c-1.053-0.75-2.339-1.192-3.73-1.192c-1.39,0-2.677,0.442-3.729,1.192
		c-0.369,0.174-0.719,0.373-1.045,0.594c-2.707-1.166-7.876-4.263-7.876-10.935c0-6.325,3.727-8.923,3.727-8.923
		s-7.342,4.405-7.342,12.876c0,8.444,7.518,13.633,9.915,15.344c1.353,1.729,3.69,2.872,6.35,2.872c2.659,0,4.997-1.143,6.35-2.872
		C40.747,37.034,48.265,31.846,48.265,23.401"/>
</g>
</svg>
