<?xml version="1.0" encoding="utf-8"?>
<!-- Generator: Adobe Illustrator 17.0.0, SVG Export Plug-In . SVG Version: 6.00 Build 0)  -->
<!DOCTYPE svg PUBLIC "-//W3C//DTD SVG 1.1//EN" "http://www.w3.org/Graphics/SVG/1.1/DTD/svg11.dtd">
<svg version="1.1" id="Layer_1" xmlns="http://www.w3.org/2000/svg" xmlns:xlink="http://www.w3.org/1999/xlink" x="0px" y="0px"
	 width="64px" height="64px" viewBox="0 0 64 64" enable-background="new 0 0 64 64" xml:space="preserve">
<path fill="#818181" d="M52.831,32.906c0-1.193-0.123-2.355-0.317-3.494l8.434-5.912l-10.307,0.164
	c-2.984-5.994-8.76-10.342-15.624-11.345L32,2.469l-3.029,9.852c-6.862,1.007-12.636,5.359-15.617,11.354L3.052,23.501l8.432,5.924
	c-0.192,1.135-0.315,2.293-0.315,3.482c0,5.83,2.415,11.102,6.288,14.886l-3.348,9.738l8.233-6.184
	c2.89,1.52,6.172,2.391,9.657,2.391c3.49,0,6.776-0.873,9.669-2.396l8.222,6.189l-3.339-9.746C50.42,44,52.831,38.732,52.831,32.906
	z M41.697,46.088l-3.648-11.227l9.557-6.944c0.505,1.575,0.783,3.249,0.783,4.989C48.389,38.313,45.746,43.102,41.697,46.088z
	 M47.547,28H35.74l-3.65-11.234C39.287,16.806,45.391,21,47.547,28z M31.92,16.766L28.27,28H16.453
	C18.61,21,24.719,16.801,31.92,16.766z M15.611,32.906c0-1.742,0.279-3.419,0.785-4.995l9.565,6.95l-3.65,11.233
	C18.258,43.108,15.611,38.316,15.611,32.906z M22.447,46.196l9.558-6.944l9.553,6.94c-2.694,1.944-5.989,3.103-9.558,3.103
	C28.434,49.295,25.14,48.138,22.447,46.196z"/>
</svg>
