<?xml version="1.0" encoding="utf-8"?>
<!-- Generator: Adobe Illustrator 17.0.0, SVG Export Plug-In . SVG Version: 6.00 Build 0)  -->
<!DOCTYPE svg PUBLIC "-//W3C//DTD SVG 1.1//EN" "http://www.w3.org/Graphics/SVG/1.1/DTD/svg11.dtd">
<svg version="1.1" id="Layer_1" xmlns="http://www.w3.org/2000/svg" xmlns:xlink="http://www.w3.org/1999/xlink" x="0px" y="0px"
	 width="64px" height="64px" viewBox="0 0 64 64" enable-background="new 0 0 64 64" xml:space="preserve">
<g>
	<path fill="#6A8E8E" d="M14.565,7v41.684L32,57l17.436-8.316V7H14.565z M42.06,26.814c0.802,0.852,1.491,1.026,1.704,1.04
		c0.213,0.012-0.836,0.368-2.129-0.213c-0.25-0.113-0.614-0.389-0.614-0.389s-0.006,1.216,1.002,2.718
		c1.124,1.675,1.773,1.967,2.154,2.155c0.465,0.228-1.192,0.109-2.555-0.727c-1.101-0.677-1.377-1.329-1.377-1.329
		s-0.211,0.921,0.45,2.732c0.46,1.258,1.41,2.829,2.875,3.879c0.882,0.632-1.873,0.045-3.325-1.709
		c-1.454-1.753-1.403-2.47-1.403-2.47s-0.489,0.919-0.438,2.385c0.037,1.062,0.366,2.048,0.845,2.743
		c0.677,0.983-0.705,0.085-1.861-1.399c-0.921-1.185-1.014-2.114-1.014-2.114s-0.302,0.542-0.375,0.949
		c-0.076,0.414-0.057,0.723,0.018,0.939c0.076,0.216-0.638-0.488-1.004-1.174c-0.299-0.56-0.479-1.269-0.479-1.269
		s-0.679,1.273-0.489,1.794c0.3,0.827,0.563,0.714,0.939,1.353c0.375,0.638,0.375,0.939,0.752,1.578
		c0.376,0.638,0.639,1.09,1.127,1.165c0.259-0.473,0.487-0.489,0.964-0.489c0.789,0,1.428,1.027,1.428,1.941
		c0,0.199-0.024,0.39-0.067,0.57c-0.184-0.513-0.371-1.046-1.048-1.271c0.241,0.274,0.41,0.84,0.41,1.337
		c0,0.513-0.06,0.917-0.598,1.268c0.056-0.179,0.138-0.447,0.138-0.651c0-0.899-0.389-1.402-1.203-1.589
		c-0.467,0-0.845,0.488-0.845,1.09c0,0.102,0.01,0.2,0.03,0.293c-0.19-0.204-0.317-0.574-0.317-0.998
		c0-0.483,0.165-0.896,0.402-1.074c0,0-0.534-0.766-1.06-1.217c-0.474-0.407-0.919-0.453-1.579-1.115
		c0.262,0.549,0.554,1.508,0.547,3.043c-0.009,2.029-0.381,2.77-0.539,3.057c-0.138,0.25-0.088-0.715-0.175-1.328
		c-0.075-0.526-0.426-1.289-0.64,0.526c-0.118,1.011-0.651,2.368-0.751,2.368c-0.113,0-0.526-1.578-0.638-2.368
		c-0.113-0.789-0.131-1.572-0.3-1.353c-0.477,0.613,0,1.691-0.414,1.165c-0.349-0.443-0.289-1.841-0.213-3.306
		c0.05-0.973,0.208-1.673,0.311-2.04c-0.789,0.9-1.276,0.901-1.802,1.351c-0.526,0.451-1.059,1.217-1.059,1.217
		c0.236,0.178,0.401,0.591,0.401,1.074c0,0.423-0.127,0.793-0.317,0.998c0.02-0.093,0.03-0.191,0.03-0.293
		c0-0.602-0.378-1.09-0.846-1.09c-0.814,0.186-1.203,0.689-1.203,1.589c0,0.204,0.081,0.472,0.138,0.651
		c-0.539-0.351-0.597-0.755-0.597-1.268c0-0.497,0.168-1.063,0.409-1.337c-0.677,0.225-0.863,0.759-1.048,1.271
		c-0.044-0.18-0.067-0.372-0.067-0.57c0-0.914,0.64-1.941,1.427-1.941c0.478,0,0.706,0.016,0.965,0.489
		c0.489-0.075,0.752-0.527,1.127-1.165c0.376-0.639,0.376-0.939,0.752-1.578c0.375-0.639,0.638-0.527,0.939-1.353
		c0.19-0.521-0.488-1.794-0.488-1.794s-0.18,0.708-0.48,1.269c-0.366,0.685-1.08,1.389-1.005,1.174
		c0.076-0.216,0.094-0.526,0.019-0.939c-0.074-0.407-0.376-0.949-0.376-0.949s-0.093,0.929-1.015,2.114
		c-1.155,1.484-2.537,2.382-1.86,1.399c0.479-0.695,0.807-1.681,0.845-2.743c0.052-1.466-0.438-2.385-0.438-2.385
		s0.05,0.716-1.403,2.47c-1.453,1.754-4.207,2.341-3.326,1.709c1.465-1.05,2.415-2.621,2.874-3.879
		c0.663-1.81,0.451-2.732,0.451-2.732s-0.275,0.651-1.377,1.329c-1.363,0.836-3.019,0.955-2.556,0.727
		c0.382-0.188,1.03-0.48,2.154-2.155c1.009-1.503,1.002-2.718,1.002-2.718s-0.363,0.276-0.615,0.389
		c-1.292,0.581-2.342,0.225-2.129,0.213c0.214-0.014,0.902-0.188,1.703-1.04c0.577-0.613,0.764-1.69,0.764-1.69
		s-0.451,0.137-1.804-0.264c-1.358-0.402-1.49-1.164-1.277-0.965c0.213,0.201,0.826,0.276,2.229,0.239
		c0.978-0.026,1.491-0.502,1.491-0.502s-0.948-0.451-1.437-1.005c-1.135-1.288-0.836-1.362-0.507-1.239
		c0.374,0.138,1.155,0.103,1.155,0.103h2.874c1.111,0,2.011,0.614,2.011,1.372c0,0.351-0.195,0.672-0.514,0.915
		c-0.779,0.591-1.442,1.236-1.442,2.13c0,1.401,1.413,2.536,3.156,2.536c1.352,0,1.225-0.883,1.329-1.454
		c0.223-1.219,1.119-1.506,1.904-1.954c0.504-0.288-0.458-1.14-0.948-1.319c-0.413-0.151-0.886-0.536-0.977-1.484
		c-0.081-0.858-0.789-0.62-0.789-0.62c0-0.351,0.564-0.968,1.462-0.886c0.748,0.068,1.653,1.101,2.656,1.552
		c1.002,0.451,1.051,0.502,1.953,0.351c0.902-0.15-0.702,0.802-1.053,0.752c-0.35-0.049,0.012,1.382-0.285,1.584
		c-0.206,0.141-0.667-0.332-0.667,1.422c0,1.753,2.138,2.055,2.138,2.055c1.743,0,3.156-1.135,3.156-2.536
		c0-0.893-0.663-1.539-1.442-2.13c-0.319-0.243-0.514-0.564-0.514-0.915c0-0.759,0.9-1.372,2.011-1.372h2.875
		c0,0,0.782,0.035,1.155-0.103c0.329-0.123,0.628-0.049-0.508,1.239c-0.488,0.554-1.437,1.005-1.437,1.005s0.513,0.475,1.49,0.502
		c1.403,0.037,2.016-0.038,2.23-0.239c0.212-0.2,0.079,0.563-1.278,0.965c-1.353,0.401-1.804,0.264-1.804,0.264
		S41.483,26.202,42.06,26.814"/>
</g>
</svg>
