<svg xmlns="http://www.w3.org/2000/svg" width="64" height="64" viewBox="224 224 64 64" enable-background="new 224 224 64 64"><path fill="#818181" d="M281 248.857v-17.857h-17.857l7.031 7.031-7.667 7.667c-3.293-2.5-7.411-3.984-11.864-3.984-10.849 0-19.643 8.794-19.643 19.643 0 10.848 8.794 19.643 19.643 19.643 10.848 0 19.643-8.795 19.643-19.643 0-4.453-1.484-8.572-3.984-11.864l7.667-7.667 7.031 7.031zm-20.257 22.601c-2.701 2.7-6.283 4.185-10.1 4.185-3.817 0-7.4-1.484-10.101-4.185-2.701-2.701-4.186-6.284-4.186-10.101 0-3.817 1.484-7.4 4.186-10.101 2.701-2.701 6.283-4.186 10.101-4.186 3.817 0 7.399 1.484 10.1 4.186 2.701 2.701 4.186 6.283 4.186 10.101 0 3.817-1.485 7.4-4.186 10.101z"/></svg>