<svg xmlns="http://www.w3.org/2000/svg" xmlns:xlink="http://www.w3.org/1999/xlink" width="64" height="64" viewBox="0 0 64 64"><image overflow="visible" width="754" height="600" xlink:href="../../../Downloads/Ship_Group_Icons.png" transform="matrix(.925 0 0 .925 -710.002 -131.5)"/><g fill="#818181"><path d="M169.983-106.894l-15.491 27.3 15.491-14.76 15.359 13.999M169.917-90.869l-21.296 21.462 5.871 3.815 15.425-14.795 15.425 14.795 6.037-3.716M170.166-77.578l-16.437 16.578h10.714l5.557 3.666 6.651-3.395 9.519-.175"/></g><g fill="#818181"><path d="M169.926-38.132l-21.168 36.599 5.786 3.76 15.382-14.64 15.431 14.64 5.885-3.709M170.148-8.383l-16.247 17.383h10.584l5.515 3.143 5.96-3.969 10.139.226"/></g><path fill="#818181" d="M31.992 7.166l-21.314 36.641 7.135 4.529-1.859 4.664h10.582l5.456 3.834 6.317-3.867 9.853.148-1.719-4.588 6.879-4.279"/></svg>