<svg xmlns="http://www.w3.org/2000/svg" xmlns:xlink="http://www.w3.org/1999/xlink" width="64" height="64" viewBox="0 0 64 64"><image overflow="visible" width="754" height="600" xlink:href="../../../Downloads/Ship_Group_Icons.png" transform="matrix(.925 0 0 .925 -710.002 -131.5)"/><g fill="#818181"><path d="M106.983 29.106l-15.491 27.3 15.491-14.76 15.359 13.999M106.917 45.131l-21.296 21.462 5.871 3.815 15.425-14.795 15.425 14.795 6.037-3.716M107.166 58.422l-16.437 16.578h10.714l5.557 3.666 6.651-3.395 9.519-.175"/></g><g fill="#818181"><path d="M31.926 6.868l-21.168 36.599 5.786 3.76 15.382-14.64 15.431 14.64 5.885-3.709M32.148 36.617l-16.247 17.383h10.584l5.515 3.143 5.96-3.969 10.139.226"/></g></svg>