<svg xmlns="http://www.w3.org/2000/svg" width="64" height="64" viewBox="0 0 64 64"><path fill="#8C7050" d="M55.305 31.422c-.848 12.68-9.491 19.267-19.907 19.959v-12.947c-.586.178-1.207.277-1.851.278-3.516-.006-6.36-2.851-6.366-6.366.006-3.514 2.85-6.36 6.366-6.365.645.001 1.266.1 1.851.278v-13.613c4.761.45 9.024 2.615 12.159 5.873l.019.018.004.004h.001c.471.464 1.116.752 1.83.752 1.441 0 2.609-1.168 2.609-2.609 0-.764-.334-1.445-.858-1.923l.012-.014c-4.551-4.773-10.973-7.747-18.091-7.747-13.806 0-25 11.193-25 25s11.193 25 25 25c16.463 0 25.318-13.802 22.222-25.578zm-24.189 19.866c-9.591-1.197-17.014-9.373-17.014-19.288s7.423-18.091 17.014-19.288v8.679c-5.032 1.112-8.796 5.59-8.798 10.955.001 5.366 3.766 9.845 8.798 10.956v7.986zm.347-18.942c0 1.47 1.192 2.662 2.662 2.662s2.662-1.191 2.662-2.662c0-1.469-1.191-2.662-2.662-2.662s-2.662 1.193-2.662 2.662z"/></svg>