<svg xmlns="http://www.w3.org/2000/svg" width="64" height="64" viewBox="0 0 64 64"><path d="M39.164 36.2c-2.007-.246-3.291 3.215-4.331 5.189-.605.25-1.144.836-1.383 1.239-.088-.063-.176-.161-.265-.302-.741-1.186.243-3.245.445-5.583.346-4.002-5.188-4.051-4.447-6.967.406-1.595 3.059-1.41 5.021-1.463.135.374.041.776-.253 1.191-.284.401-1.029 1.603-1.131 2.302-.272.083-.525.302-.628.593-.081.23.206.146.228.062.042-.163.117-.296.206-.192.097.113.046.408.167.345.12-.063.086-.156.023-.277-.047-.089-.124-.238.001-.292.029.191.15.303.419.274l.204-.033c-.044.123-.051.241.016.358.17.296.267.257.35.072.06-.133-.211-.137-.188-.243.014-.064.111-.171.199-.265.859-.219 1.548-.628 2.056-.506.252.061.371.167.642.282.273.115.704-.333.828-.062.124.272.445.222.346.494-.099.272-.094.155-.21.247-.105.083-.281-.435-.161.124.071.328.531.284.704.173s.037-.494.148-.704c.111-.21-.433-.766-.593-.84-.161-.074-.099-.309.086-.284l.383-.309c.21 0 .086.47.296.556l.432.025c.423.148-.167.537.21.306.217-.133.074-.404-.012-.54s-.309-.321-.259-.568c.049-.247-.593-.395-.815-.433-.159-.027-.436.135-.536.217.041-.101-.106-.396-.106-.526 0-.148.333-.037.519-.037.185 0 .085-.374.21-.309.306.157.084.448.148.42.324-.142.049-.544-.025-.766-.074-.222-.791.049-1.211.123-.42.074-.148.617-.272 1.038-.073.249-.241.22-.495.187-.278-.037-.519.075-.833.094-.383.023-1.026.204-.111-.611.74-.66 1.011-1.539.834-1.984.348-.201.456-.536.179-1.104-1.038-2.124-6.571-6.028-4.051-6.373.687-.094 1.189.435 1.362.649-.151 1.771-.127.116.417.771.47.566 1.056.148 1.056.685s.722 1.167.963 1.445.284.222.556.685c.37.63.648.389 1.019.111.651-.489-.333.092-.389-.815-.019-.314-.259-.482-.648-.722-.389-.241-.056-.574-.296-.926-.241-.352.37-.074.76-.074.389 0 .648.167.852.556s1.056.908 1.278.945c.222.037.337.038.278.389-.018.111.704.037 1.167-.648.34-.504-.797-1.019-1.112-1.186-.315-.167-.556-.296-.574-.556-.019-.259-.648-.815-.908-1.075-.259-.259-.389-.204-.13-.315s-.259-.648-.611-.852-.389-.574-.871-1.056c-.127-.127-.275-.199-.434-.241.159-.958-.041-1.943-2.055-2.415-1.052-.247.815.37.914.865.124.617.223.148.247.593.025.445-.074.346-.074.716 0 .099-.02.171-.049.23-.149.011-.297.019-.44.011l-.011.014-.524-.083c.075-.852-.238-1.918-1.811-2.228l-.32-.069c.227.073.877.334 1.024.866 0 0 .333.018.37.241.037.222-.068.376.056.5.092.093.105.212.018.333l-.217.282c-.195-.007-.399-.006-.606.002-.183-.497-.552-.88-1.049-1.055-.63-.222-1.556.018-1.408.018.148 0 .945-.037 1.316.426.074.093.155.111.278.296.093.139.037.222 0 .389l-.012.026c-.369.074-.72.197-1.029.379-.216-.397-.594-.798-1.268-1.023-1.237-.412-2.421.346-2.124.346.297 0 1.482-.099 1.828.198.345.296.321.494.42.568s.296.123.296.296-.247.247-.123.346c.092.073-.035.311-.106.59-.46-.176-.897-.144-1.352.077-.528.256-.569 1.024-.519.939.074-.127.556-.766.815-.642.158.075.278.099.278.099s.266-.049.29.05.136.126.2.247l.095.137c-.017.219-.01.436.016.651-.407.119-.794.335-1.046.62-.491.556-.406 1.873-.296 1.945.028.019.185-1.316.63-1.288.259.016.151-.312.25-.25.148.093.213-.13.38-.009.108.078.306.019.519.38l.009.013c.954 1.947 2.957 3.384 2.109 3.384-1.159 0-2.112.242-2.874.644-.7.097-1.64.168-2.043-.187-.482-.426-1.297.148-1.575-.148s-.593-1.093-.593-1.612-.5-1.149-.63-1.371c-.129-.222-.111-.63-.092-.963.018-.333-.738-.318-1.019-.445-.37-.167-.562.315-.562.315.444-.198.302.062.395.232.056.102.13.148.435.139.364-.011.158.019.102.241-.056.222.093.519 0 .445s-.537.148-.722.018c-.185-.13-.333-.333-.537-.556-.204-.222-.444-.056-.722-.056s-.426.667-.333.537c.093-.13.284-.259.389-.222l.185.296c.167.13.389-.185.463.074.074.259.556.333.667.426.111.092-.167.055-.389.055s-.222.37-.37.556c-.148.185-.389.259-.445.482-.055.222.63.389.463.296-.167-.092-.074-.222.074-.222s.111-.5.278-.5.296-.185.389-.074c.092.111.407.019.63.019l.433.741c.341.439.155 1.262.149 2.231l-.223.19c-.222.204.018-.5-.13-.574s-.5-.204-.278.13c.222.333.05.685-.284.445-.333-.241-.377-.221-.315.071.031.145.509.343 1.047.167l.221-.09c.068.229.232.322.459.355.012.204-.092.437-.421 1.014-.139.243-.231.306-.463.296-.165-.007-.742-.175-.754-.155-.324.556.687.196.648.463-.028.194-.829.361-.824.472.018.445.407.241.963-.222.436-.363 1.026-1.257 1.317-1.86.308-.021.668-.067 1.061-.067.653 0 .975.168 1.163.447-.527 1.108-.537 2.455-.027 3.753 1.087 2.767 4.496 1.976 3.656 4.694-.153.496-.321 1.121-.458 1.799-.419-.11-.935-.525-1.271-.292-.482.333-1.149 2.026-1.408 1.445-.288-.644-.704-1.038-1.149-1.26-.445-.222-.679-.284-.371-.296.309-.013.272-.062.259-.259l-.025-.642s.136-.531-.111-.581-.407-.247-.519-.025c-.111.222-.123.235-.074.346s.111-.333.198-.136c.087.198-.037.136 0 .296.037.161.099.309-.012.383-.111.074-.383.185-.408-.111-.025-.296-.185-.297-.259-.544s.148-.691-.161-.679c-.309.012-.284.123-.358.111-.074-.012-.29.052-.21.296.014.041.059-.114.173-.062.089.04-.137.148.006.355.167.241.006.355.195.639.121.183.071.451-.127.389s-.643-.111-.766-.296-.531-.506-.543-.222c-.013.284-.074.395-.222.544-.148.148-.309.853-.21.877.099.025.09.422.358.346.509-.145.204-.08.05-.235-.228-.228.136-.083.247-.281.111-.198.145-.482.195-.333.049.148.312.145.583.269.272.124-.148.395.222.482.37.086.653-.055.976.173 1.363.961 1.102 2.499 1.888 3.287-.021.764-.053 1.265-.64 1.987-.311.382-.275.373-.148.556.111.161.432-.754.408-.333-.042.706-.326.522-.074.741.185.161.351-.772.42-1.173.111-.642.395-.939.581-.593l.346 1.038c.074.012.171.104.099-.185-.099-.395.042-.502.173-.284.333.556.296.877.37.889.061.01.272.161.173-.259-.07-.298-.333-.778-.63-1.136-.123-.149-.497-.43-.566-1.199.598-.422 1.396-1.983 1.641-1.629.215.31.319.855.524 1.189.199 1.2.76 2.207 1.971 2.615 1.478.498 2.541-.363 3.399-1.632l.065.17-.001.002c-.228 1.124-1.088 1.114-.936 1.242.198.169.516-.303.544-.167.019.091-.451.402-.218.43.236.029.309-.449.454-.576.185-.163.277-.033.156.589-.162.837-.617.764-.3.799.242.026.452-1.035.509-.495.058.54-.409.798-.178.808.235.01.327-.367.256-1.095l-.059-.509c.169.161.313.31.409.483l-.062.519c.148.173-.062.42-.062.531 0 .111-.136.198-.049.346.086.148-.256.015-.235.049.089.139.025.161.296.235.313.085.185-.358.407-.469.222-.111.124-.494.235-.346l.444.407.037.445c.172.156-.132.109-.111.148.077.148.259.111.445.062.185-.049.074-.407.099-.691.025-.284-.148-.247-.346-.482s.062-.531.185-.432c.123.099.235-.012.346-.012.111 0 .111.074.235.222.124.148.185.062.333.111s-.077.241-.173.198c-.028-.012-.037.043.161.148l.309-.222c.161 0 .062-.259.062-.457s-.457-.198-.506-.457-.618.013-.815-.222c-.331-.393-.593-.395-1.013-.42-.369-.022.354-1.619.011-2.532 1.147-2.284 1.983-4.659 3.324-3.397 1.247 1.173.605 4.883 1.038 4.644.247-.141.988-6.7-1.631-7.021zm-3.409-16.601c.103-.254.351.142.699.622.035.302-.113.581-.113.581s.141-.172.246-.395c.293.417.508 1.162.508 1.162s-.407-.315-1.038-.611c-.381-.18-.5-.871-.302-1.359zm-3.995-3.658zm-24.76 16.059c0 13.785 11.215 25 25 25s25-11.215 25-25-11.215-25-25-25-25 11.215-25 25zm5.336 0c0-10.843 8.821-19.664 19.664-19.664 10.843 0 19.664 8.821 19.664 19.664s-8.821 19.664-19.664 19.664c-10.843 0-19.664-8.821-19.664-19.664z" fill="#820E15"/></svg>