<svg xmlns="http://www.w3.org/2000/svg" width="64" height="64" viewBox="0 0 64 64"><path fill="#8C7050" d="M18.966 29.345l-.167.164c-1.667 1.641-2.631 3.602-2.631 5.704v-.004.013c0 2.01.892 3.903 2.437 5.5l.245-.194c-.716-1.102-1.112-2.312-1.114-3.591 0-1.909.892-3.676 2.399-5.137l.095-.092-.074-.109c-.438-.641-.808-1.323-1.1-2.039l-.09-.215zm13.034-22.345c-13.808.002-24.999 11.192-25 25 .001 13.81 11.192 24.999 25 25 13.807-.001 24.997-11.191 25-25-.002-13.808-11.193-24.998-25-25zm-1.254 44.94c-.716-.046-1.421-.129-2.116-.249v-15.936s.964.183 1.561.878c.598.695.549 1.802.549 1.802l.006.094v13.411zm4.624-.249c-.694.119-1.4.202-2.116.249v-13.401l.006-.103s-.049-1.107.549-1.802c.597-.696 1.561-.879 1.561-.879v15.936zm1.88-.416v-16.107c4.255-1.669 7.197-5.29 7.209-9.476.001-1.959-.643-3.792-1.764-5.359-.047-.064-.134-.085-.203-.046-.07.038-.099.122-.07.196.38.942.587 1.954.587 3.009l.001.022c-.016 5.185-4.955 9.337-11.011 9.348-6.063-.011-11.007-4.172-11.01-9.367 0-1.057.209-2.071.589-3.016.029-.074 0-.158-.069-.196-.071-.038-.156-.019-.204.046-1.121 1.568-1.767 3.402-1.767 5.362.012 4.186 2.955 7.806 7.211 9.476v16.107c-8.484-2.315-14.718-10.057-14.734-19.275.019-10.615 8.281-19.275 18.731-19.939v12.84c-2.786.143-5.367.758-7.559 1.722l-.155.068.083.15c.406.745.951 1.432 1.611 2.044l.071.067.091-.035c2.095-.781 4.522-1.228 7.111-1.229 2.589.001 5.015.448 7.11 1.23l.091.034.071-.066c.659-.613 1.204-1.3 1.611-2.045l.084-.15-.156-.068c-2.192-.964-4.773-1.579-7.557-1.722v-12.839c10.45.663 18.712 9.324 18.732 19.939-.018 9.218-6.251 16.961-14.735 19.275zm7.948-21.767l-.167-.163-.089.216c-.291.716-.66 1.399-1.097 2.04l-.075.109.093.092c1.507 1.461 2.399 3.227 2.399 5.137-.002 1.279-.398 2.489-1.113 3.591l.245.194c1.541-1.592 2.431-3.479 2.435-5.486v-.023c0-2.104-.964-4.064-2.631-5.707z"/></svg>