<svg xmlns="http://www.w3.org/2000/svg" width="64" height="64" viewBox="0 0 64 64"><path fill="#6A8E8E" d="M32 7c-13.807 0-25 11.193-25 25s11.193 25 25 25 25-11.193 25-25-11.193-25-25-25zm6.089 47.727v-14.237c0-3.363-2.726-6.089-6.089-6.089-3.363 0-6.089 2.726-6.089 6.089v14.237c-7.686-2.551-13.232-9.794-13.232-18.336 0-9.149 6.361-16.807 14.899-18.807-1.588 1.288-2.605 3.253-2.605 5.458 0 3.881 3.146 7.026 7.026 7.026s7.026-3.146 7.026-7.026c0-2.205-1.016-4.169-2.605-5.458 8.538 2 14.899 9.658 14.899 18.807.002 8.542-5.544 15.785-13.23 18.336z"/></svg>