<svg xmlns="http://www.w3.org/2000/svg" width="64" height="64" viewBox="0 0 64 64"><path fill="#6374AD" d="M23.667 31.566v2.686l-16.667 2.527v-9.636l16.667 2.528zm16.666.79v-2.685l16.667-2.528v9.636l-16.667-2.527zm-12.322 1.738h3.12v-4.186h-3.12v4.186zm4.858-4.187v4.186h3.119v-4.186h-3.119zm3.485-9.952h3.985l4.399 6.81 5.484-.831-7.129-11.034h-5.794l1.063-5.687h-5.49v16.509h2.408l1.074-5.767zm-9.651-5.056h-5.795l-7.129 11.035 5.481.83 4.4-6.81h3.986l1.076 5.766h2.409v-16.508h-5.49l1.062 5.687zm1.017 28.753h-4.06l-4.214-6.524-5.48.832 6.942 10.746h5.869l-1.135 6.083h5.49v-16.51h-2.409l-1.003 5.373zm12.619 0h-4.06l-1.002-5.373h-2.408v16.51h5.49l-1.137-6.083h5.868l6.943-10.746-5.481-.832-4.213 6.524z"/></svg>