<svg xmlns="http://www.w3.org/2000/svg" width="64" height="64" viewBox="0 0 64 64"><path fill="#8C7050" d="M38.381 11.676s11.079 5.71 11.282 19.056h-15.565v-5.07h-4.196v5.07h-15.565c.201-13.346 11.282-19.056 11.282-19.056s-17.483 2.623-18.619 24.039h50c-1.137-21.416-18.619-24.039-18.619-24.039zm-28.19 25.699c0 12.15 6.818 14.686 6.818 14.686s-2.623-4.721-2.623-10.577h15.035v10.839h5.158v-10.84h15.035c0 5.858-2.623 10.577-2.623 10.577s6.819-2.536 6.819-14.686l-43.619.001zm13.286 6.731h4.283v8.217h-4.283zm12.762 0h4.284v8.217h-4.284z"/></svg>