<svg xmlns="http://www.w3.org/2000/svg" width="64" height="64" viewBox="0 0 64 64"><path fill="#6B4739" d="M29.662 32c2.661-3.321 7.675-8.043 14.677-8.043 4.096 0 6.927 2.478 6.927 2.478s-3.699-4.132-10.453-4.132c-5.376 0-10.245 3.816-13.203 6.761-1.268 1.262-2.185 2.364-2.64 2.937.455.573 1.373 1.675 2.64 2.937 2.958 2.946 7.827 6.762 13.203 6.762 6.755 0 10.454-4.133 10.454-4.133s-2.831 2.478-6.927 2.478c-7.002-.002-12.017-4.724-14.678-8.045zm-11.348 0c4.766-5.945 13.744-14.402 26.282-14.402 7.335 0 12.403 4.437 12.403 4.437s-6.622-7.4-18.717-7.4c-4.373 0-8.554 1.417-12.316 3.45-1.541-.957-2.968-2.396-4.33-2.896-4.027-1.476-6.086.313-6.086.313s6.245-1.002 7.369 4.414c-1.065.704-2.082 1.443-3.05 2.2-2.286-.747-4.334-3.19-6.262-3.897-4.373-1.604-6.607.339-6.607.339s8.743-1.409 8.16 7.578l-.007.107-.514.5c-2.27 2.259-3.914 4.233-4.727 5.258.814 1.026 2.458 2.999 4.727 5.258l.514.5.007.106c.583 8.986-8.16 7.577-8.16 7.577s2.234 1.943 6.606.34c1.928-.708 3.976-3.15 6.262-3.897.968.757 1.986 1.495 3.051 2.2-1.124 5.415-7.369 4.414-7.369 4.414s2.058 1.789 6.086.313c1.362-.499 2.789-1.939 4.33-2.896 3.762 2.034 7.943 3.45 12.316 3.45 12.095 0 18.718-7.4 18.718-7.4s-5.068 4.437-12.403 4.437c-12.54 0-21.518-8.457-26.283-14.403z"/></svg>