<svg xmlns="http://www.w3.org/2000/svg" width="64" height="64" viewBox="0 0 64 64"><path fill="#6374AD" d="M38.488 51.113l-3.545-3.545 6.69-6.691-6.69-6.689 3.632-3.632 8.212 8.212h5.884l-11.153-11.154 6.849-6.849-13.765-13.765v5.887l7.879 7.878-10.481 10.479-10.479-10.48 7.879-7.88v-5.884l-13.765 13.764 6.849 6.849-11.156 11.155h5.886l8.212-8.212 3.631 3.63-6.69 6.69 6.691 6.69-3.545 3.545-8.298-8.299h-5.886l14.184 14.188 6.489-6.489 6.486 6.487 14.184-14.186h-5.884l-8.3 8.301zm-10.235-10.234l3.748-3.749 3.747 3.747-3.747 3.748-3.748-3.746z"/></svg>