<svg xmlns="http://www.w3.org/2000/svg" width="64" height="64" viewBox="0 0 64 64"><path fill="#820E15" d="M24.226 40.841h15.549v-2.642h-15.549v2.642zm0 3.049h15.549v-1.524h-15.549v1.524zm7.775-36.89c-13.809.001-24.999 11.191-25.001 25 .002 13.809 11.192 24.999 25.001 25 13.807-.002 24.998-11.192 24.999-25-.001-13.809-11.192-24.999-24.999-25zm14.228 39.228c-3.651 3.645-8.665 5.892-14.229 5.893-5.564-.001-10.579-2.248-14.228-5.893-3.645-3.649-5.892-8.665-5.893-14.228.001-5.564 2.248-10.579 5.894-14.228 1.839-1.837 4.025-3.318 6.453-4.336v21.206h15.549v-21.207c2.429 1.018 4.615 2.499 6.455 4.336 3.645 3.649 5.892 8.664 5.893 14.228-.002 5.564-2.249 10.58-5.894 14.229z"/></svg>