<svg xmlns="http://www.w3.org/2000/svg" width="64" height="64" viewBox="0 0 64 64"><path fill="#6B4739" d="M50.804 39.232c.055-.575.085-1.157.085-1.745 0-9.047-6.553-16.305-15.17-17.795-.035-.596-.18-3.064-.357-5.536-.101-1.419-.213-2.839-.318-3.909-.052-.536-.106-.983-.156-1.303l-.074-.382c-.054-.091.021-.167-.212-.26l-.189-.022v25.122h-4.828v-25.121l-.189.022c-.231.094-.157.168-.211.26-.325 1.24-.833 9.932-.903 11.128-8.616 1.489-15.17 8.747-15.17 17.795 0 .59.03 1.171.084 1.747-2.056 1.178-6.176 4.322-6.196 8.049v.515l.309-.414c.001-.003.651-.871 1.663-1.743 1.012-.874 2.38-1.73 3.773-1.728.567 0 1.141.137 1.715.476.248.606.525 1.197.833 1.767-1.541 1.33-4.267 4.007-4.269 8.171l.003.161.333.045c.004-.003 1.33-3.914 5.972-3.909.453 0 .939.037 1.461.119 2.827 2.696 6.512 4.502 10.604 4.955l.189.022v-6.381h4.828v6.379l.189-.021c4.094-.453 7.777-2.257 10.604-4.954.521-.082 1.009-.121 1.464-.121 4.638-.005 5.957 3.909 5.971 3.91l.333-.053v-.154c-.001-4.163-2.726-6.84-4.266-8.17.307-.57.585-1.16.831-1.767.573-.338 1.148-.476 1.715-.477 2.793-.02 5.428 3.472 5.438 3.472l.307.418v-.518c-.019-3.729-4.14-6.872-6.196-8.05zm-21.218 1.024h4.828v2.485h-4.828v-2.485zm4.828-4.883v2.399h-4.828v-2.399h4.828zm-7.694-.023c-.456 3.351-1.02 6.702-1.681 9.207-.636 2.516-1.486 4.135-2.119 4.066-3.301-.011-7.131-3.306-7.139-11.136.001-5.701 3.127-9.533 6.273-11.958 2.628-2.024 5.251-3.043 6.044-3.328-.098 1.293-.57 7.216-1.378 13.149zm2.866 11.417v-1.799h4.828v1.799h-4.828zm11.495 1.856c-.633.067-1.483-1.551-2.119-4.067-1.834-6.945-2.903-20.338-3.059-22.359 1.744.619 12.334 4.832 12.316 15.289-.007 7.832-3.836 11.126-7.138 11.137z"/></svg>