<svg xmlns="http://www.w3.org/2000/svg" width="64" height="64" viewBox="0 0 64 64"><path fill="#677079" d="M35.275 46.273c0 1.81-1.467 3.274-3.276 3.274-1.81 0-3.275-1.466-3.275-3.274 0-1.81 1.466-3.275 3.275-3.275 1.81 0 3.276 1.467 3.276 3.275m-28.275-16.49s2.604 3.908 5.196 5.986c2.037 1.633 3.66 2.476 4.561 2.476.73 0 2.63-1.683 2.63-1.683l-3.366-2.209s-1.472.104-4.207-1.578c-2.734-1.682-4.814-2.992-4.814-2.992m50 0s-2.605 3.908-5.195 5.986c-2.037 1.633-3.66 2.476-4.562 2.476-.729 0-2.63-1.683-2.63-1.683l3.365-2.209s1.474.104 4.209-1.578c2.733-1.682 4.813-2.992 4.813-2.992m-35.97 8.528s-2.796 2.033-2.796 5.932c0 5.422 7.201 9.232 7.201 9.232s-3.388-4.064-3.388-6.86c0-2.798 3.388-5.085 3.388-5.085l-4.405-3.219zm21.941 0s2.795 2.033 2.795 5.932c0 5.422-7.201 9.232-7.201 9.232s3.389-4.064 3.389-6.86c0-2.798-3.389-5.085-3.389-5.085l4.406-3.219zm5.295-14.91c0-8.472-7.343-12.876-7.343-12.876s3.728 2.598 3.728 8.923c0 6.672-5.17 9.77-7.877 10.935-.325-.222-.676-.42-1.045-.594-1.053-.75-2.338-1.192-3.729-1.192-1.39 0-2.677.442-3.729 1.192-.369.174-.719.373-1.045.594-2.707-1.166-7.876-4.263-7.876-10.935 0-6.325 3.727-8.923 3.727-8.923s-7.342 4.405-7.342 12.876c0 8.444 7.518 13.633 9.915 15.344 1.353 1.729 3.69 2.872 6.35 2.872 2.659 0 4.997-1.143 6.352-2.872 2.395-1.711 9.914-6.899 9.914-15.344"/></svg>