<svg xmlns="http://www.w3.org/2000/svg" width="64" height="64" viewBox="0 0 64 64"><path fill="#DA931D" d="M38.137 52.329c1.262-1.123 1.262-.737 1.754-1.228.491-.492 1.51-.737 1.825-1.158.316-.422.281-.633.526-.633.246 0 .421.211.736-.142s.703-.735.703-1.123c0-.386.139-1.509.139-1.79 0-.279.492-2.352.492-2.913 0-.561-.07-1.438-.388-1.438s-.877.07-.911.316c-.035.245-.562 1.684-.633 2.28-.068.599-.386 1.334-.807 1.509-.422.178-1.438 0-1.86-.068-.421-.07-1.157.068-1.263.42-.104.352.14.562.104.808l-.525 1.438c-.104.422-.245 1.019-.245 1.334 0 .314.069 1.158-.562 1.191-.633.035-.771-.842-.771-1.123 0-.279-.211-.807-.563-.807-.351 0-.877.525-1.088.632s-.842.211-.842.388c0 .174.07.489-.105.454-.174-.034-.696-1.495-1.263-1.684-.105-.035.212 2.597-.327 2.129-.399-.349.047-1.334-.339-1.356-.28-.018-.597.176-.983.176s-.702-.281-.877-.281c-.176 0-.561.105-.772.035-.21-.07-.491-.353-.667-.316-.176.035-.281.07-.456-.07-.175-.141-.14-.597-.281-.386-.14.211-.351.491-.351.737s-.035.563-.14.771c-.105.211-.667 1.019-.667 1.264 0 .244-.386.597-.351.842.035.245.246.281.246.456s-.14.526.035.702c.175.175.526.421.772.49s.526-.142.667.035c.141.176.456.28 1.228.982.772.701 1.018 1.088 1.299 1.298.281.211.737.035.877.211.141.177.456.246.561.246s.457-.142.667-.142c.209 0 1.088.281 1.228.142.142-.142 1.123-1.369 1.438-1.825s1.192-1.229 1.475-1.438c.28-.208 1.265-1.365 1.265-1.365zm7.275-18.05c-.047-1.006-.227-1.684-.491-2.012-.491-.608-2.386-2.457-3.299-3.135-.912-.678-2.503-1.895-2.831-1.872-.327.024-.842.608-.818.959.022.351.188.468.022.678s-.937.819-.843.491c.094-.327.562-.444.609-.795.047-.351.162-2.386.325-2.994.164-.608.397-2.714.562-3.86s.516-4.001.562-5.147c.047-1.146.095-3.111-.047-3.977-.14-.866-.937-2.877-1.849-3.79-.91-.912-3.132-1.848-4.489-1.825-1.357.023-5.919.819-7.229 1.521s-6.27 2.457-4.562 2.574c1.708.117 4.375-.561 5.264-.538.889.023 2.503-.351 3.345.07.842.421 1.568.889 1.661 1.638.093.749.725 3.018 1.076 5.03.351 2.012 1.544 9.896 1.287 9.92-.257.023-2.316.117-3.018.351s-3.135 1.404-3.93 2.597c-.795 1.193-1.755 3.135-1.872 3.79-.117.654-.215 1.441-.398 2.082-.281.982-1.435 1.667-1.334 1.801.281.374.193.51.263.859.07.352.404.896.772 1.212.369.315 1.176 1.386 1.193 1.192.018-.192-.351-.896-.474-1.177-.123-.28-.684-1.123-.614-1.229.07-.104-.246-.338-.193-.146.053.193.281.843.175.644-.122-.229-.38-.871-.257-.818s.626.076.731.199c.105.121.948.824 1.281.982.333.157.842.245 1.018.403.175.158.942.415.749.696-.193.281-.977.076-1.398.408-.421.334-.714.744-.977.795-.263.054-1.084.635-1.076 1.047.012.615.561 1.388.983 1.844.282.305 1 1.07.807.736-.193-.332-.509-.789-.684-1.019-.175-.228-.368-.333-.21-.524.158-.193 1.404-.719 1.474-.422.07.299.158.648.175 1.141.018.49.035 1.352.07 1.878.035.526-.018.912.07 1.069.088.158.316.211.544.211s.298.035.298-.053c0-.089.07-.229.193-.229s.246.456.281.544c.035.087.404.069.597.069.193 0 .456 0 .509-.053.053-.053.088-.158.281-.141.193.018.158.158.246.246s.673.047.872.041c.632-.018 1.006.07 1.006-.094 0-.162-.117-.89.093-.89.211 0 .679-.211.866-.094.187.117.421.491.561.795.141.306.426 1.249.561 1.101.445-.49.375-1.66.608-1.849 0 0 .263-.21.491-.164.818.164.83.772 1.041.772 0 0 .98.002 1.135-.234.152-.232.643-1.566.516-1.591-.258-.047-.89 0-1.028.211-.142.211-.849.603-.912.469-.151-.315.538-.993.292-.993 0 0-.76-.563-1.146-.891-.387-.327-1.613-1.157-1.135-1.157.479 0 .889.269 1.028.443.14.174.678.667.924.524.246-.141.69-.959.912-.899s.269.305.573.305c.304 0 .351-.258.585-.258.233 0 2.059.094 2.433-.211.374-.304.749-.585.749-.702 0-.115.421-.396.515-.163.096.233.188.187.047.468-.139.28-.426 1.336-.981 1.521-.562.187-.981.351-1.427.374 0 0-1.029.257-.68.257.351 0 .726-.093 1.101-.116.374-.023 1.287-.095 1.497-.281.21-.188.49-1.006.654-1.311.164-.304.451-.75.397-1.029-.116-.606-.655-1.216-.655-1.591s1.547-1.768 2.129-2.315c.398-.375 1.076-1.123 1.217-1.496.14-.373.705-1.282.631-2.873zm-16.172 8.873v.298l-.211.65c-.088.648-.123.648-.614.701-.271.029-.632-.613-.667-.79l.228-.561c.07-.491.386-.737.509-.912.123-.177-.123-.192-.14-.386-.018-.193.211-.211.474-.193.263.018.439.684.526.807.088.123-.125.052-.105.386zm3.544-32.653c-.86-1.035-2.667-.86-4.246-.86s4.264-.526 5.194-.474c.93.053 1.525 1.246 2.808 2.948 1.28 1.702.877 3.351.808 5.071-.07 1.72-.457 7.703-.545 8.843-.088 1.14-.123 2.948-.455 3.123-.334.175-1.668-1.105-1.771-1.298s-.178-2.23-.333-3.825c-.177-1.79-.158-1.456-.265-2.737-.104-1.281.492 1.772.599 2.421s.456 3.018.632 3.474c.175.456.387.193.702-.456s.211-3.738.192-6.633-.088-5.439-.088-5.58-.438-.123-.931-.737c-.494-.613-1.44-2.245-2.301-3.28zm-.754 33.882c-.123.088-.123.598-.404.719-.281.123-.544.035-.702-.121-.158-.158-.439-.334-.719-.526-.281-.193-.202-.599-.158-1.265.018-.263-.035-.543-.158-.771s-.158-.438 0-.599c.158-.156.456.177.597.316.14.141.895 1 1.351 1.527.456.527.316.632.193.72zm5.99-1.865c-.142 0-1.777 0-1.918-.048-.141-.047-.937-.047-1.217-.047-.281 0-.561-.28-.795-.608s-1.076-.606-1.825-.842c-.749-.234-1.357-.842-1.544-.889s.421-.327.795-.561c.374-.234 1.191-.871 2.106-1.686.907-.809.409-.352.708-.754.298-.402.544-.842.965-1.369.421-.525 1.193-1.211 1.702-1.211s.754.667.981.965c.229.299.422.879.633 1.229.211.352-.51-.613-.649-.877-.142-.262-.562-.701-1.088-.771s-1.088.561-1.286.778c-.184.2 1.076.257 1.45 1.31.147.416.468.983.655 1.17.187.188.14 1.123.14 1.312 0 .187.233-.048.28-.328.048-.281.142.421.142.653 0 .234-.328.608-.421.844-.093.232-.421 1.311-.702 1.449-.28.142.562.048.89-.094.326-.141 1.028-1.263 1.17-1.496.137-.236-1.033 1.871-1.172 1.871zm-11.558-19.045c-.643-2.163-1.989-4.889-2.877-5.638-.889-.749-1.778-.866-2.386-1.263-.608-.398-1.521-.866-1.918-.866-.398 0-2.036.304-2.831.421-.795.117-2.152.468-3.158.725-1.006.257-1.638.725-2.012.842-.374.117-1.263.211-1.357.304-.093.093-.327.351-.585.468-.257.117-2.176.725-2.457 1.053-.281.327-.468 1.146-.07 1.38s1.31.07 1.848-.07 1.404-.211 2.644-.281c1.24-.07 2.714-.047 3.392.023.678.07 2.152.094 3.088.515.936.421 2.035 1.591 2.878 2.714s2.129 2.48 2.901 3.345c.772.866 2.932 2.77 2.901 2.34-.023-.327-1.068-1.388-1.287-1.614-.678-.702-1.287-1.708-.983-1.451.304.257 1.006 1.053 1.24 1.217.234.164.608.047.327-.444-.281-.491-1.17-2.901-1.684-4.118-.515-1.217-.912-2.48-1.31-2.971-.398-.491-1.006-1.146-1.193-.936-.187.211-1.029 1.053-1.029.772s0-.889-.421-1.146-.678-.351-1.006-.281c-.327.07-.632.093-.795.327-.164.234-.702.14-.468.398.234.258.585.632.117.585-.468-.047-.772-.304-1.053-.327l-.702-.281c-.187-.07-.187.187-.561.187-.374 0-.444-.164-.608-.164s-.211.211-.468.211-.281-.281-.491-.281-.398.257-.842.304c-.444.047-1.567.07-1.918.304s-2.714.351-1.146-.234 2.41-1.146 3.182-1.38c.771-.234 2.41-.959 2.995-1.029.585-.07 1.755-.374 2.433-.187s2.082.912 2.737 1.263c.655.351 1.778 1.076 2.691 3.299.912 2.223 2.082 5.474 2.293 5.989.21.515.491 1.287.749 1.217.257-.07.608-.351.608-.749s-.894-2.76-1.408-4.492z"/></svg>