<svg xmlns="http://www.w3.org/2000/svg" width="64" height="64" viewBox="0 0 64 64"><path d="M17.754 26.846c.726 1.515 1.868 2.881 3.314 4.017 3.244-1.172 6.969-1.839 10.932-1.839 3.814 0 7.406.621 10.564 1.712 1.432-1.161 2.548-2.551 3.243-4.09-3.957-1.748-8.703-2.77-13.807-2.77-5.296 0-10.203 1.099-14.246 2.97m-7.327 5.265c-2.175 2.468-3.427 5.34-3.427 8.407 0 3.205 1.363 6.196 3.72 8.735-.943-1.641-1.463-3.419-1.463-5.278 0-2.867 1.23-5.544 3.359-7.821-.901-1.259-1.637-2.614-2.189-4.043m46.573 8.407c0-3.239-1.394-6.259-3.798-8.816-.522 1.459-1.241 2.844-2.126 4.135 2.317 2.341 3.668 5.135 3.668 8.137 0 1.859-.521 3.637-1.463 5.278 2.357-2.538 3.719-5.529 3.719-8.734m-5.624-14.526c0-4.341-1.979-8.29-5.218-11.245 2.063 2.317 3.279 5.15 3.279 8.212 0 7.828-7.925 14.175-17.701 14.175-9.777 0-17.702-6.347-17.702-14.175 0-3.062 1.216-5.895 3.279-8.212-3.238 2.955-5.218 6.904-5.218 11.245 0 8.056 6.815 14.768 15.845 16.26l-.001.001s1.005.141 1.887 1.569c1.328 2.152 1.904 4.02 1.904 4.02s.576-1.868 1.904-4.02c.84-1.362 1.783-1.551 1.869-1.566 9.045-1.483 15.873-8.2 15.873-16.264" fill="#8C7050"/></svg>