<svg xmlns="http://www.w3.org/2000/svg" width="64" height="64" viewBox="0 0 64 64"><path fill="#6374AD" d="M32 7c-13.807 0-25 11.193-25 25s11.193 25 25 25 25-11.193 25-25-11.193-25-25-25m-6.222 21.883c1.144-2.28 3.497-3.848 6.222-3.848 3.848 0 6.965 3.119 6.965 6.965 0 3.846-3.119 6.965-6.965 6.965-2.724 0-5.077-1.568-6.222-3.848l-5.119 1.688c1.872 4.413 6.245 7.508 11.34 7.508 4.752 0 8.868-2.696 10.921-6.639l4.898 1.904c-2.828 5.891-8.848 9.959-15.819 9.959-9.685 0-17.537-7.852-17.537-17.537 0-9.685 7.852-17.538 17.538-17.538 6.971 0 12.991 4.067 15.818 9.959l-4.897 1.904c-2.053-3.943-6.169-6.639-10.921-6.639-5.095 0-9.468 3.096-11.34 7.509l5.118 1.688z"/></svg>