<svg xmlns="http://www.w3.org/2000/svg" width="64" height="64" viewBox="0 0 64 64"><path fill="#6A8E8E" d="M14.565 7v41.684l17.435 8.316 17.436-8.316v-41.684h-34.871zm27.495 19.814c.802.852 1.491 1.026 1.704 1.04.213.012-.836.368-2.129-.213-.25-.113-.614-.389-.614-.389s-.006 1.216 1.002 2.718c1.124 1.675 1.773 1.967 2.154 2.155.465.228-1.192.109-2.555-.727-1.101-.677-1.377-1.329-1.377-1.329s-.211.921.45 2.732c.46 1.258 1.41 2.829 2.875 3.879.882.632-1.873.045-3.325-1.709-1.454-1.753-1.403-2.47-1.403-2.47s-.489.919-.438 2.385c.037 1.062.366 2.048.845 2.743.677.983-.705.085-1.861-1.399-.921-1.185-1.014-2.114-1.014-2.114s-.302.542-.375.949c-.076.414-.057.723.018.939.076.216-.638-.488-1.004-1.174-.299-.56-.479-1.269-.479-1.269s-.679 1.273-.489 1.794c.3.827.563.714.939 1.353l.752 1.578c.376.638.639 1.09 1.127 1.165.259-.473.487-.489.964-.489.789 0 1.428 1.027 1.428 1.941 0 .199-.024.39-.067.57-.184-.513-.371-1.046-1.048-1.271.241.274.41.84.41 1.337 0 .513-.06.917-.598 1.268.056-.179.138-.447.138-.651 0-.899-.389-1.402-1.203-1.589-.467 0-.845.488-.845 1.09l.03.293c-.19-.204-.317-.574-.317-.998 0-.483.165-.896.402-1.074 0 0-.534-.766-1.06-1.217-.474-.407-.919-.453-1.579-1.115.262.549.554 1.508.547 3.043-.009 2.029-.381 2.77-.539 3.057-.138.25-.088-.715-.175-1.328-.075-.526-.426-1.289-.64.526-.118 1.011-.651 2.368-.751 2.368-.113 0-.526-1.578-.638-2.368-.113-.789-.131-1.572-.3-1.353-.477.613 0 1.691-.414 1.165-.349-.443-.289-1.841-.213-3.306.05-.973.208-1.673.311-2.04-.789.9-1.276.901-1.802 1.351-.526.451-1.059 1.217-1.059 1.217.236.178.401.591.401 1.074 0 .423-.127.793-.317.998l.03-.293c0-.602-.378-1.09-.846-1.09-.814.186-1.203.689-1.203 1.589 0 .204.081.472.138.651-.539-.351-.597-.755-.597-1.268 0-.497.168-1.063.409-1.337-.677.225-.863.759-1.048 1.271-.044-.18-.067-.372-.067-.57 0-.914.64-1.941 1.427-1.941.478 0 .706.016.965.489.489-.075.752-.527 1.127-1.165l.752-1.578c.375-.639.638-.527.939-1.353.19-.521-.488-1.794-.488-1.794s-.18.708-.48 1.269c-.366.685-1.08 1.389-1.005 1.174.076-.216.094-.526.019-.939-.074-.407-.376-.949-.376-.949s-.093.929-1.015 2.114c-1.155 1.484-2.537 2.382-1.86 1.399.479-.695.807-1.681.845-2.743.052-1.466-.438-2.385-.438-2.385s.05.716-1.403 2.47c-1.453 1.754-4.207 2.341-3.326 1.709 1.465-1.05 2.415-2.621 2.874-3.879.663-1.81.451-2.732.451-2.732s-.275.651-1.377 1.329c-1.363.836-3.019.955-2.556.727.382-.188 1.03-.48 2.154-2.155 1.009-1.503 1.002-2.718 1.002-2.718s-.363.276-.615.389c-1.292.581-2.342.225-2.129.213.214-.014.902-.188 1.703-1.04.577-.613.764-1.69.764-1.69s-.451.137-1.804-.264c-1.358-.402-1.49-1.164-1.277-.965.213.201.826.276 2.229.239.978-.026 1.491-.502 1.491-.502s-.948-.451-1.437-1.005c-1.135-1.288-.836-1.362-.507-1.239.374.138 1.155.103 1.155.103h2.874c1.111 0 2.011.614 2.011 1.372 0 .351-.195.672-.514.915-.779.591-1.442 1.236-1.442 2.13 0 1.401 1.413 2.536 3.156 2.536 1.352 0 1.225-.883 1.329-1.454.223-1.219 1.119-1.506 1.904-1.954.504-.288-.458-1.14-.948-1.319-.413-.151-.886-.536-.977-1.484-.081-.858-.789-.62-.789-.62 0-.351.564-.968 1.462-.886.748.068 1.653 1.101 2.656 1.552 1.002.451 1.051.502 1.953.351.902-.15-.702.802-1.053.752-.35-.049.012 1.382-.285 1.584-.206.141-.667-.332-.667 1.422 0 1.753 2.138 2.055 2.138 2.055 1.743 0 3.156-1.135 3.156-2.536 0-.893-.663-1.539-1.442-2.13-.319-.243-.514-.564-.514-.915 0-.759.9-1.372 2.011-1.372h2.875s.782.035 1.155-.103c.329-.123.628-.049-.508 1.239-.488.554-1.437 1.005-1.437 1.005s.513.475 1.49.502c1.403.037 2.016-.038 2.23-.239.212-.2.079.563-1.278.965-1.353.401-1.804.264-1.804.264s.192 1.079.769 1.691"/></svg>