<svg xmlns="http://www.w3.org/2000/svg" width="64" height="64" viewBox="0 0 64 64"><path fill="#6B4739" d="M46.767 11.919l-10.577 19.435c-1.795-1.535-4.021-2.443-6.433-2.443-5.944 0-10.762 5.518-10.762 12.326 0 4.773 2.796 8.643 6.07 10.88 3.01 2.056 6.538 2.99 10.411 2.99 11.887 0 21.524-9.966 21.524-22.259 0-8.593-4.029-16.21-10.233-20.929m-16.818 14.138c1.911 0 3.741.373 5.429 1.055l8.915-16.852c-3.63-2.131-7.825-3.347-12.294-3.347-3.097 0-6.062.586-8.799 1.654l5.811 17.523c.311-.02.623-.033.938-.033m-4.128.605l-5.546-16.724c-5.056 2.791-9.08 7.329-11.32 12.839l10.555 7.661c1.766-1.753 3.921-3.065 6.311-3.776m-8.355 6.258l-9.576-6.95c-.579 2.19-.89 4.496-.89 6.878 0 2.714.404 5.33 1.149 7.789h6.552c.294-2.859 1.276-5.495 2.765-7.717m-2.799 10.924h-5.31c2.739 6.06 7.669 10.842 13.734 13.243-4.657-2.488-7.96-7.433-8.424-13.243"/></svg>