<?xml version="1.0" encoding="utf-8"?>
<!-- Generator: Adobe Illustrator 16.0.0, SVG Export Plug-In . SVG Version: 6.00 Build 0)  -->
<!DOCTYPE svg PUBLIC "-//W3C//DTD SVG 1.1//EN" "http://www.w3.org/Graphics/SVG/1.1/DTD/svg11.dtd">
<svg version="1.1" id="Layer_1" xmlns="http://www.w3.org/2000/svg" xmlns:xlink="http://www.w3.org/1999/xlink" x="0px" y="0px"
	 width="64px" height="64px" viewBox="0 0 64 64" enable-background="new 0 0 64 64" xml:space="preserve">
<path fill="#707070" d="M52.555,26.064l0.059,0.182l0.017-0.005l2.856-0.93l4.736-1.539l-0.604-1.861l-5.867-0.289
	c-3.515-6.153-9.558-10.676-16.707-12.145l-2.085-5.481H33v8h0.193C42.034,12.471,49.5,18.175,52.555,26.064z M8.513,25.313
	l2.858,0.93l0.015,0.005l0.059-0.182c3.055-7.891,10.521-13.595,19.361-14.069H31v-8h-1.958l-2.085,5.482
	c-7.151,1.47-13.193,5.992-16.707,12.145l-5.867,0.289l-0.605,1.861L8.513,25.313z M56.872,31.219l4.573-3.68l-0.604-1.862
	l-7.608,2.472l0.063,0.187c0.48,1.808,0.749,3.703,0.749,5.661c0,6.938-3.228,13.131-8.252,17.174l-0.049,0.035L46,51.561
	l1.509,2.076l2.937,4.041l1.584-1.15l-1.539-5.672c4.068-4.451,6.554-10.369,6.554-16.86C57.042,33.057,56.975,32.132,56.872,31.219
	z M44.127,52.389l-0.005-0.008l-0.086,0.063c-3.463,2.269-7.597,3.595-12.036,3.595c-4.44,0-8.573-1.326-12.037-3.595l-0.086-0.063
	l-0.005,0.008l-0.871,1.197l-3.827,5.268l1.584,1.15l4.913-3.213c3.152,1.436,6.644,2.246,10.327,2.246
	c3.684,0,7.175-0.811,10.327-2.246l4.913,3.213l1.584-1.15l-3.827-5.268L44.127,52.389L44.127,52.389z M16.494,53.637l1.509-2.076
	l0.257-0.354l-0.049-0.035c-5.026-4.043-8.253-10.235-8.253-17.174c0-1.958,0.267-3.854,0.749-5.661l0.061-0.187L3.16,25.677
	l-0.605,1.862l4.574,3.68c-0.103,0.913-0.171,1.838-0.171,2.777c0,6.49,2.487,12.408,6.553,16.861l-1.539,5.67l1.584,1.152
	L16.494,53.637z"/>
</svg>
