<?xml version="1.0" encoding="utf-8"?>
<!-- Generator: Adobe Illustrator 16.0.0, SVG Export Plug-In . SVG Version: 6.00 Build 0)  -->
<!DOCTYPE svg PUBLIC "-//W3C//DTD SVG 1.1//EN" "http://www.w3.org/Graphics/SVG/1.1/DTD/svg11.dtd">
<svg version="1.1" id="Layer_1" xmlns="http://www.w3.org/2000/svg" xmlns:xlink="http://www.w3.org/1999/xlink" x="0px" y="0px"
	 width="64px" height="64px" viewBox="0 0 64 64" enable-background="new 0 0 64 64" xml:space="preserve">
<path fill="#707070" d="M28.881,7.075l-0.006,0.001c-12.33,1.53-21.92,12.091-21.92,24.841c0,3.535,0.743,6.897,2.071,9.948
	l2.625-1.516c-1.082-2.601-1.696-5.442-1.696-8.433c0-11.089,8.239-20.299,18.918-21.82V7.081l0.014-0.001L28.881,7.075z
	 M34.891,7.043l-0.017,0.011v2.577h0.002c10.81,2,19.17,10.898,19.17,22.068c0,2.898-0.571,5.771-1.593,8.309l2.617,1.566
	l0.021-0.008c1.257-2.977,1.954-6.232,1.954-9.664C57.045,19.069,47.343,8.479,34.891,7.043z M49.471,45.439
	C45.991,49.962,40.809,53,34.875,54H35v2h-6v-2.264c-6-0.816-10.817-3.861-14.246-8.215l-2.665,1.521
	c4.579,6.021,11.797,9.915,19.922,9.915c8.221,0,15.524-3.923,20.094-10.059L49.471,45.439z"/>
<path fill="#5BC0DE" d="M29,52h6v4h-6V52z"/>
<path fill="#707070" d="M30,21h4v22h-4V21z M38,21h4v22h-4V21z M22,21h4v22h-4V21z"/>
<path fill="#5BC0DE" d="M16.493,19.362l-3,5.196l-3.464-2l3-5.196L16.493,19.362z M50.629,24.775l-3-5.196l3.464-2l3,5.196
	L50.629,24.775z"/>
</svg>
