<?xml version="1.0" encoding="utf-8"?>
<!-- Generator: Adobe Illustrator 16.0.0, SVG Export Plug-In . SVG Version: 6.00 Build 0)  -->
<!DOCTYPE svg PUBLIC "-//W3C//DTD SVG 1.1//EN" "http://www.w3.org/Graphics/SVG/1.1/DTD/svg11.dtd">
<svg version="1.1" id="Layer_1" xmlns="http://www.w3.org/2000/svg" xmlns:xlink="http://www.w3.org/1999/xlink" x="0px" y="0px"
	 width="64px" height="64px" viewBox="0 0 64 64" enable-background="new 0 0 64 64" xml:space="preserve">
<path fill="#707070" d="M21,21h4v22h-4V21z M29,21h4v10h-4V21z M39,21h4v10h-4V21z M18.735,14.41
	C22.429,11.618,27.024,9.958,32,9.958c4.912,0,9.453,1.616,13.122,4.344l2.137-2.137C43.031,8.904,37.74,6.958,32,6.958
	c-5.804,0-11.148,1.99-15.399,5.316L18.735,14.41z M51.542,16.367l-2.135,2.135c2.901,3.733,4.635,8.415,4.635,13.498
	c0,4.977-1.659,9.57-4.451,13.264l2.136,2.135c3.325-4.25,5.315-9.594,5.315-15.397C57.042,26.09,54.979,20.655,51.542,16.367z
	 M45.357,49.518c-3.709,2.834-8.34,4.523-13.358,4.523c-5.082,0-9.765-1.734-13.497-4.635l-2.135,2.135
	c4.288,3.438,9.722,5.5,15.632,5.5c5.847,0,11.228-2.02,15.493-5.389L45.357,49.518z M14.302,45.122
	C11.575,41.453,9.958,36.912,9.958,32c0-5.019,1.689-9.649,4.525-13.358l-2.135-2.135c-3.37,4.266-5.39,9.646-5.39,15.493
	c0,5.74,1.946,11.031,5.206,15.259L14.302,45.122z"/>
<path fill="#5BC0DE" d="M29,52h6v4h-6V52z M8,29h4v6H8V29z M52,29h4v6h-4V29z M29,8h6v4h-6V8z"/>
<path fill="#707070" d="M29,31l5,12h4l5-12h-4l-2.031,6H35l-2-6H29z"/>
</svg>
