<?xml version="1.0" encoding="utf-8"?>
<!-- Generator: Adobe Illustrator 16.0.0, SVG Export Plug-In . SVG Version: 6.00 Build 0)  -->
<!DOCTYPE svg PUBLIC "-//W3C//DTD SVG 1.1//EN" "http://www.w3.org/Graphics/SVG/1.1/DTD/svg11.dtd">
<svg version="1.1" id="Layer_1" xmlns="http://www.w3.org/2000/svg" xmlns:xlink="http://www.w3.org/1999/xlink" x="0px" y="0px"
	 width="64px" height="64px" viewBox="0 0 64 64" enable-background="new 0 0 64 64" xml:space="preserve">
<path fill="#707070" d="M25,21h4v10h-4V21z M35,21h4v10h-4V21z M25,31l5,12h4l5-12h-4l-2.031,6H31l-2-6H25z M12.162,22.307
	C15.319,15.809,21.577,11.09,29,10.075V7.051c-8.753,1.05-16.128,6.629-19.711,14.322L12.162,22.307z M14.969,50.244l1.778-2.447
	c-4.18-4.014-6.789-9.65-6.789-15.89c0-1.329,0.125-2.629,0.351-3.893l-2.88-0.936c-0.307,1.563-0.472,3.177-0.472,4.829
	C6.958,39.143,10.046,45.668,14.969,50.244L14.969,50.244z M35,10.075c7.423,1.015,13.682,5.734,16.838,12.232l2.873-0.933
	C51.128,13.68,43.753,8.101,35,7.051V10.075z M53.691,28.014c0.226,1.265,0.351,2.564,0.351,3.893c0,6.239-2.608,11.876-6.789,15.89
	l1.778,2.447c4.923-4.576,8.011-11.102,8.011-18.337c0-1.652-0.165-3.266-0.472-4.829L53.691,28.014L53.691,28.014z M42.404,51.332
	C39.305,53,35.762,53.949,32,53.949c-3.761,0-7.304-0.949-10.405-2.617l-1.775,2.443c3.608,2.019,7.761,3.174,12.181,3.174
	s8.573-1.155,12.181-3.174L42.404,51.332z"/>
<path fill="#5BC0DE" d="M50.094,41.031l1.854-5.707l3.804,1.236l-1.854,5.707L50.094,41.031z M57.061,42.242l1.236-3.805
	l2.854,0.928l-1.235,3.804L57.061,42.242z M46.184,17.582l-4.854-3.527l2.352-3.236l4.854,3.527L46.184,17.582z M49.488,11.331
	L46.253,8.98l1.763-2.427l3.236,2.351L49.488,11.331z M22.671,14.057l-4.854,3.527l-2.351-3.236l4.854-3.527L22.671,14.057z
	 M17.748,8.981l-3.236,2.351l-1.763-2.427l3.236-2.351L17.748,8.981z M12.051,35.327l1.854,5.707l-3.804,1.235l-1.854-5.707
	L12.051,35.327z M5.702,38.441l1.236,3.804l-2.853,0.927l-1.236-3.804L5.702,38.441z M29,52h6v4h-6V52z M30,59h4v3h-4V59z"/>
</svg>
