<?xml version="1.0" encoding="utf-8"?>
<!-- Generator: Adobe Illustrator 16.0.0, SVG Export Plug-In . SVG Version: 6.00 Build 0)  -->
<!DOCTYPE svg PUBLIC "-//W3C//DTD SVG 1.1//EN" "http://www.w3.org/Graphics/SVG/1.1/DTD/svg11.dtd">
<svg version="1.1" id="Layer_1" xmlns="http://www.w3.org/2000/svg" xmlns:xlink="http://www.w3.org/1999/xlink" x="0px" y="0px"
	 width="64px" height="64px" viewBox="0 0 64 64" enable-background="new 0 0 64 64" xml:space="preserve">
<path fill="#707070" d="M10.205,29C11.798,18.402,20.964,10.25,32,10.25S52.202,18.402,53.795,29h3.023
	C55.201,16.743,44.691,7.25,32,7.25C19.308,7.25,8.799,16.743,7.181,29H10.205z M53.87,35C52.529,45.88,43.236,54.333,32,54.333
	c-11.237,0-20.53-8.453-21.87-19.333H7.107c1.355,12.539,12,22.333,24.893,22.333c12.893,0,23.538-9.794,24.893-22.333H53.87z
	 M26,21h4v22h-4V21z M34,21h4v22h-4V21z"/>
<path fill="#5BC0DE" d="M29,52h6v4h-6V52z M29,8h6v4h-6V8z"/>
</svg>
