<?xml version="1.0" encoding="utf-8"?>
<!-- Generator: Adobe Illustrator 16.0.0, SVG Export Plug-In . SVG Version: 6.00 Build 0)  -->
<!DOCTYPE svg PUBLIC "-//W3C//DTD SVG 1.1//EN" "http://www.w3.org/Graphics/SVG/1.1/DTD/svg11.dtd">
<svg version="1.1" id="Layer_1" xmlns="http://www.w3.org/2000/svg" xmlns:xlink="http://www.w3.org/1999/xlink" x="0px" y="0px"
	 width="64px" height="64px" viewBox="0 0 64 64" enable-background="new 0 0 64 64" xml:space="preserve">
<path fill="#707070" d="M32,57.042C18.192,57.042,6.958,45.809,6.958,32C6.958,18.192,18.192,6.958,32,6.958
	c13.809,0,25.042,11.234,25.042,25.042C57.042,45.809,45.809,57.042,32,57.042z M32,9.958C19.846,9.958,9.958,19.846,9.958,32
	c0,12.154,9.888,22.042,22.042,22.042c12.154,0,22.042-9.888,22.042-22.042C54.042,19.846,44.154,9.958,32,9.958z"/>
<path fill="#5BC0DE" d="M29,52h6v4h-6V52z"/>
<path fill="#707070" d="M30,21h4v22h-4V21z"/>
</svg>
